<?xml version="1.0" standalone="no"?>
<!DOCTYPE svg PUBLIC "-//W3C//DTD SVG 1.1//EN" "http://www.w3.org/Graphics/SVG/1.1/DTD/svg11.dtd" >
<svg xmlns="http://www.w3.org/2000/svg">
<metadata>Generated by IcoMoon</metadata>
<defs>
<font id="icomoon" horiz-adv-x="1024">
<font-face units-per-em="1024" ascent="960" descent="-64" />
<missing-glyph horiz-adv-x="1024" />
<glyph unicode="&#x20;" horiz-adv-x="512" d="" />
<glyph unicode="&#xe900;" glyph-name="world" d="M512 960c-282.77 0-512-229.23-512-512s229.23-512 512-512c282.77 0 512 229.23 512 512v0c0 282.77-229.23 512-512 512v0zM957.11 464.516h-198.194c-1.579 74.657-15.345 145.606-39.378 211.623l1.457-4.577c47.111 20.129 87.746 44.493 124.513 73.538l-1.137-0.867c66.65-74.215 108.717-171.696 112.715-278.911l0.024-0.806zM493.733 2.989c-55.828 47.418-101.156 105.336-133.265 170.906l-1.375 3.108c40.521 12.934 87.252 21.034 135.665 22.413l0.725 0.016v-196.542zM530.234 893.011c63.447-54.106 113.609-121.86 146.207-198.857l1.315-3.499c-44.247-15.621-95.321-25.417-148.441-27.099l-0.798-0.020v229.574zM585.233 887.395c92.861-15.799 173.813-58.414 236.755-119.486l-0.112 0.108c-32.706-25.504-69.983-47.651-109.911-64.807l-3.29-1.258c-30.433 72.012-72.102 133.538-123.487 185.423l0.046-0.046zM495.484 893.11v-229.574c-53.919 1.703-104.993 11.498-152.821 28.209l3.581-1.089c33.926 80.49 84.086 148.242 146.779 201.737l0.743 0.619zM315.326 701.985c-43.219 18.423-80.494 40.569-114.339 66.916l1.137-0.852c62.83 60.965 143.782 103.58 234.011 119.006l2.632 0.372c-51.346-51.857-93.016-113.406-122.007-181.642l-1.435-3.801zM333.824 660.199c47.922-17.194 103.249-27.939 160.835-29.709l0.825-0.020v-165.954h-197.467c1.502 70.558 14.499 137.613 37.184 200.018l-1.377-4.335zM495.484 431.484v-199.019c-54.039-1.507-105.4-10.687-153.767-26.485l3.834 1.083c-28.344 66.163-45.639 143.022-47.52 223.693l-0.013 0.728h197.467zM438.767 8.671c-83.6 14.196-157.093 49.95-216.779 101.305l0.583-0.49c30.367 21.441 65.068 40.317 101.909 54.963l3.398 1.192c29.372-60.571 66.49-112.417 110.906-156.986l-0.017 0.017zM528.516 2.89v196.542c49.139-1.395 95.869-9.495 140.017-23.415l-3.627 0.986c-33.484-68.678-78.812-126.596-133.886-173.39l-0.753-0.624zM696.122 165.574c40.239-15.838 74.94-34.714 106.9-57.219l-1.594 1.064c-59.096-50.877-132.594-86.634-213.574-100.445l-2.622-0.37c44.411 44.547 81.531 96.394 109.398 153.58l1.491 3.39zM678.45 207.063c-44.534 14.715-95.894 23.894-149.178 25.385l-0.755 0.017v199.019h197.467c-1.895-81.399-19.189-158.258-49.066-228.475l1.533 4.054zM528.516 464.516v165.987c58.411 1.787 113.738 12.532 165.452 30.904l-3.792-1.175c21.311-58.080 34.308-125.147 35.796-195.046l0.011-0.67h-197.467zM179.497 744.134c35.629-28.177 76.264-52.541 119.868-71.326l3.508-1.345c-22.572-61.413-36.327-132.331-37.876-206.25l-0.012-0.697h-198.194c4.055 107.978 46.102 205.417 113.071 280.031l-0.364-0.413zM66.89 431.484h198.194c1.868-85.465 19.904-166.221 51.155-240.023l-1.606 4.272c-44.632-17.804-83.144-39.227-118.426-64.829l1.558 1.077c-77.363 76.915-126.571 182.076-130.851 298.708l-0.023 0.795zM826.269 131.98c-33.724 24.526-72.236 45.949-113.251 62.466l-3.617 1.287c29.628 69.53 47.663 150.284 49.536 235.023l0.013 0.728h198.194c-4.303-117.428-53.512-222.589-130.853-299.483l-0.021-0.021z" />
<glyph unicode="&#xe901;" glyph-name="truck" d="M794.624 593.76c-5.821 8.636-15.566 14.24-26.619 14.24-0.002 0-0.003 0-0.005 0h-32c-17.673 0-32-14.327-32-32v0-192c0-17.673 14.327-32 32-32v0h128c17.673 0 32 14.327 32 32v0 48c-0.011 6.618-2.017 12.766-5.449 17.876l0.073-0.116zM864 384h-128v192h32l96-144v-48zM1008 469.248l-128 192c-17.461 25.926-46.705 42.752-79.879 42.752-0.043 0-0.085 0-0.128 0h-127.993v64c0 53.019-42.981 96-96 96v0h-480c-53.019 0-96-42.981-96-96v0-352c0-53.019 42.981-96 96-96v0 0-96c0-53.019 42.981-96 96-96v0h36.544c14.498-55.598 64.262-95.97 123.456-95.97s108.958 40.372 123.259 95.084l0.197 0.886h169.056c14.476-55.63 64.256-96.033 123.472-96.033s108.996 40.403 123.276 95.147l0.196 0.886h36.544c53.019 0 96 42.981 96 96v0 192c0 0.094 0.001 0.205 0.001 0.316 0 19.724-5.976 38.053-16.217 53.273l0.216-0.342zM96 384c-17.673 0-32 14.327-32 32v0 352c0 17.673 14.327 32 32 32v0h480c17.673 0 32-14.327 32-32v0-352c0-17.673-14.327-32-32-32v0h-480zM352 96c-35.346 0-64 28.654-64 64s28.654 64 64 64c35.346 0 64-28.654 64-64v0c0-35.346-28.654-64-64-64v0zM768 96c-35.346 0-64 28.654-64 64s28.654 64 64 64c35.346 0 64-28.654 64-64v0c0-35.346-28.654-64-64-64v0zM960 224c0-17.673-14.327-32-32-32v0h-36.544c-14.476 55.63-64.256 96.033-123.472 96.033s-108.996-40.403-123.276-95.147l-0.196-0.886h-169.056c-14.498 55.598-64.262 95.97-123.456 95.97s-108.958-40.372-123.259-95.084l-0.197-0.886h-36.544c-17.673 0-32 14.327-32 32v0 96h416c53.019 0 96 42.981 96 96v0 224h128c0.001 0 0.003 0 0.005 0 11.053 0 20.798-5.604 26.547-14.126l0.072-0.114 128-192c3.368-4.989 5.376-11.136 5.376-17.753 0-0.003 0-0.005 0-0.008v0-192z" />
<glyph unicode="&#xe902;" glyph-name="vinyl" d="M702.304 923.328c-56.349 23.214-121.766 36.692-190.332 36.692-282.77 0-512-229.23-512-512s229.23-512 512-512c214.219 0 397.711 131.56 474.087 318.291l1.237 3.417c23.204 56.337 36.676 121.741 36.676 190.292 0 214.204-131.541 397.685-318.251 474.071l-3.417 1.237zM345.6 32c-166.423 67.892-281.575 228.469-281.575 415.941 0 247.424 200.576 448 448 448s448-200.576 448-448c0-59.919-11.763-117.091-33.107-169.332l1.081 2.992c-68.090-166.396-228.752-281.487-416.295-281.487-59.826 0-116.917 11.712-169.104 32.967l2.999-1.080zM535.936 507.328c-7.053 2.91-15.242 4.6-23.826 4.6-35.346 0-64-28.654-64-64s28.654-64 64-64c26.772 0 49.705 16.439 59.255 39.773l0.155 0.427c2.914 7.057 4.606 15.25 4.606 23.839 0 26.817-16.493 49.781-39.889 59.303l-0.428 0.154zM500.224 418.208c-11.881 4.853-20.1 16.319-20.1 29.705 0 17.673 14.327 32 32 32s32-14.327 32-32c0-4.292-0.845-8.386-2.378-12.126l0.077 0.213c-4.865-11.853-16.318-20.049-29.685-20.049-4.341 0-8.481 0.865-12.256 2.431l0.212-0.078zM583.424 626.208c-21.129 8.704-45.658 13.757-71.368 13.757-106.039 0-192-85.961-192-192s85.961-192 192-192c80.333 0 149.143 49.336 177.784 119.362l0.464 1.281c8.702 21.127 13.755 45.655 13.755 71.362 0 80.354-49.362 149.179-119.416 177.806l-1.282 0.464zM464.48 329.184c-47.528 19.407-80.41 65.276-80.41 118.824 0 70.692 57.308 128 128 128s128-57.308 128-128c0-17.157-3.376-33.526-9.499-48.478l0.309 0.854c-19.491-47.483-65.369-80.313-118.915-80.313-17.127 0-33.47 3.359-48.406 9.454l0.857-0.309zM749.728 352.832c0.722 1.758 1.141 3.798 1.141 5.936 0 8.84-7.166 16.005-16.005 16.005-6.701 0-12.441-4.119-14.825-9.963l-0.039-0.107c-22.516-55.47-65.009-98.91-118.336-122.129l-1.44-0.559c-5.637-2.557-9.486-8.136-9.486-14.614 0-8.837 7.163-16 16-16 2.198 0 4.293 0.443 6.2 1.245l-0.105-0.039c0.288 0 0.416 0.384 0.672 0.48 62.233 27.208 110.525 76.633 135.608 138.008l0.616 1.704zM859.616 326.048c-1.762 0.726-3.807 1.148-5.95 1.148-6.691 0-12.422-4.107-14.811-9.937l-0.039-0.107c-35.41-87.153-102.193-155.402-185.991-191.89l-2.265-0.878c-5.637-2.557-9.486-8.136-9.486-14.614 0-8.837 7.163-16 16-16 2.198 0 4.293 0.443 6.2 1.245l-0.105-0.039c0.416 0.192 0.672 0.544 1.056 0.736 93.338 40.794 165.765 114.926 203.365 206.981l0.923 2.555c0.727 1.763 1.15 3.81 1.15 5.956 0 6.716-4.137 12.465-10.002 14.838l-0.107 0.038zM800 349.856c-1.769 0.733-3.824 1.159-5.978 1.159-6.695 0-12.429-4.112-14.816-9.948l-0.039-0.107c-28.93-71.314-83.567-127.156-152.132-156.979l-1.852-0.717c-5.763-2.507-9.719-8.152-9.719-14.72 0-8.84 7.166-16.007 16.007-16.007 2.272 0 4.434 0.473 6.391 1.327l-0.103-0.040c0.352 0 0.512 0.448 0.864 0.64 77.779 33.99 138.134 95.759 169.471 172.463l0.769 2.129c0.729 1.765 1.152 3.813 1.152 5.961 0 6.68-4.094 12.404-9.91 14.8l-0.106 0.039zM432 674.944c-2.513 5.745-8.147 9.686-14.702 9.686-2.285 0-4.459-0.479-6.425-1.342l0.103 0.040c-0.288 0-0.448-0.352-0.704-0.448-62.222-27.212-110.503-76.637-135.576-138.008l-0.616-1.704c-0.722-1.758-1.141-3.798-1.141-5.936 0-8.84 7.166-16.005 16.005-16.005 6.701 0 12.441 4.119 14.825 9.963l0.039 0.107c22.517 55.452 65.012 98.872 118.336 122.066l1.44 0.558c5.891 2.449 9.958 8.157 9.958 14.815 0 2.242-0.461 4.376-1.294 6.313l0.040-0.104zM381.6 792.608c-2.507 5.759-8.148 9.713-14.713 9.713-2.281 0-4.45-0.477-6.414-1.337l0.103 0.040c-0.381-0.241-0.704-0.473-1.014-0.721l0.022 0.017c-93.341-40.802-165.775-114.93-203.396-206.98l-0.924-2.556c-0.73-1.766-1.155-3.818-1.155-5.968 0-8.838 7.165-16.003 16.003-16.003 6.688 0 12.417 4.102 14.809 9.928l0.039 0.107c35.401 87.159 102.188 155.411 185.992 191.89l2.264 0.878c5.87 2.458 9.919 8.156 9.919 14.799 0 2.236-0.459 4.364-1.287 6.297l0.040-0.104zM398.368 712.8c6.106 2.347 10.36 8.163 10.36 14.973 0 8.837-7.163 16-16 16-2.535 0-4.932-0.589-7.062-1.639l0.094 0.042c-0.32 0-0.48-0.448-0.832-0.576-77.781-34.016-138.135-95.804-169.47-172.525l-0.77-2.131c-0.651-1.676-1.028-3.616-1.028-5.643 0-8.837 7.163-16 16-16 6.575 0 12.224 3.966 14.684 9.636l0.040 0.103c28.943 71.306 83.575 127.144 152.132 156.978l1.852 0.718z" />
<glyph unicode="&#xe903;" glyph-name="wallet" d="M576 400c-35.346 0-64-28.654-64-64s28.654-64 64-64c35.346 0 64 28.654 64 64v0c0 35.346-28.654 64-64 64v0zM928 560v0 288c0 53.019-42.981 96-96 96v0h-656c-97.158-0.109-175.891-78.842-176-175.99v-640.010c0.109-97.158 78.842-175.891 175.99-176h576.010c97.158 0.109 175.891 78.842 176 175.99v48.010c58.554 44.25 96 113.752 96 192s-37.446 147.75-95.396 191.563l-0.604 0.437zM176 880h656c17.673 0 32-14.327 32-32v0-197.888c-9.499 3.623-20.481 5.773-31.951 5.888h-0.049v160c0 17.673-14.327 32-32 32v0h-672c-17.673 0-32-14.327-32-32v0-126.176c-19.666 20.161-31.797 47.752-31.797 78.176 0 61.785 50.029 111.884 111.786 112h0.011zM800 784h-672v32h672v-32zM800 752v-32h-672v32h672zM800 688v-32h-624c-17.485 0.086-33.986 4.211-48.645 11.49l0.645-0.29v20.8h672zM864 128c0-61.856-50.144-112-112-112v0h-576c-61.856 0-112 50.144-112 112v0 504.352c30.103-25.109 69.198-40.352 111.853-40.352 0.052 0 0.103 0 0.155 0h655.992c17.673 0 32-14.327 32-32v0-64h-288c-88.366 0-160-71.634-160-160s71.634-160 160-160v0h288v-48zM904.864 240h-328.864c-53.019 0-96 42.981-96 96s42.981 96 96 96v0h288c20.797 0.306 39.222 10.202 51.089 25.452l0.111 0.148c3.142 4.252 5.836 9.12 7.854 14.325l0.146 0.427c0.288 0.704 0.8 1.248 1.056 1.952 22.248-29.2 35.645-66.19 35.645-106.309 0-50.359-21.108-95.788-54.96-127.922l-0.077-0.073z" />
<glyph unicode="&#xe904;" glyph-name="calendar" d="M938.656 864h-138.656v64c0 17.673-14.327 32-32 32s-32-14.327-32-32v0-64h-192v64c0 17.673-14.327 32-32 32s-32-14.327-32-32v0-64h-192v64c0 17.673-14.327 32-32 32s-32-14.327-32-32v0-64h-138.656c-0.009 0-0.021 0-0.032 0-47.117 0-85.312-38.195-85.312-85.312v-757.344c0-47.134 38.21-85.344 85.344-85.344v0h853.344c47.12 0.018 85.312 38.221 85.312 85.344v0 757.344c0 47.117-38.195 85.312-85.312 85.312-0.011 0-0.023 0-0.034 0h0.002zM960 21.344c0-11.788-9.556-21.344-21.344-21.344v0h-853.312c-11.788 0-21.344 9.556-21.344 21.344v757.344c0.018 11.774 9.567 21.312 21.344 21.312 0 0 0 0 0 0h138.656v-64c0-17.673 14.327-32 32-32s32 14.327 32 32v0 64h192v-64c0-17.673 14.327-32 32-32s32 14.327 32 32v0 64h192v-64c0-17.673 14.327-32 32-32s32 14.327 32 32v0 64h138.656c0 0 0 0 0 0 11.777 0 21.326-9.538 21.344-21.31v-757.346zM224 480h128v96h-128v-96zM224 320h128v96h-128v-96zM224 160h128v96h-128v-96zM448 160h128v96h-128v-96zM448 320h128v96h-128v-96zM448 480h128v96h-128v-96zM672 160h128v96h-128v-96zM672 320h128v96h-128v-96zM672 480h128v96h-128v-96z" />
<glyph unicode="&#xe905;" glyph-name="shop" d="M1004.8 601.6l-96 128c-3.908 5.008-8.105 9.439-12.687 13.44l-0.113 0.096v152.864c0 35.346-28.654 64-64 64v0h-640c-35.346 0-64-28.654-64-64v0-152.96c-4.697-4.071-8.893-8.47-12.645-13.236l-0.155-0.204-96-128c-11.957-15.858-19.163-35.884-19.2-57.591v-32.009c0-53.019 42.981-96 96-96v0 0-416c0-35.346 28.654-64 64-64v0h704c35.346 0 64 28.654 64 64v0 416c53.019 0 96 42.981 96 96v0 32c-0.045 21.716-7.249 41.74-19.378 57.847l0.178-0.247zM832 896v-128h-640v128h640zM326.176 480h-134.176l128 224h70.048zM423.488 704h72.512v-224h-136.512zM528 704h72.512l64-224h-136.512v224zM633.792 704h70.208l128-224h-134.208zM64 512v32c0 7.24 2.404 13.919 6.458 19.28l-0.058-0.080 96 128c5.9 7.807 15.167 12.8 25.6 12.8h91.264l-128-224h-59.264c-17.673 0-32 14.327-32 32v0zM640 0h-240v320h240v-320zM864 0h-192v320c0 17.673-14.327 32-32 32v0h-240c-17.673 0-32-14.327-32-32v0-320h-208v416h704v-416zM960 512c0-17.673-14.327-32-32-32v0h-59.296l-128 224h91.296c10.433 0 19.7-4.993 25.542-12.72l0.058-0.080 96-128c3.996-5.281 6.4-11.96 6.4-19.2v0-32z" />
<glyph unicode="&#xe906;" glyph-name="clip" d="M939.616 827.712c-52.115 52.099-124.102 84.322-203.616 84.322s-151.501-32.223-203.617-84.323l0.001 0.001-466.88-460.8c-43.37-40.942-70.37-98.825-70.37-163.014 0-123.712 100.288-224 224-224 64.269 0 122.216 27.066 163.065 70.422l0.105 0.112 466.88 460.8c31.246 29.275 50.715 70.795 50.715 116.862 0 88.366-71.634 160-160 160-46.115 0-87.673-19.509-116.871-50.724l-0.084-0.090-350.944-350.56c-6.027-5.827-9.769-13.985-9.769-23.017 0-17.673 14.327-32 32-32 9.032 0 17.19 3.742 23.009 9.76l0.009 0.009 351.008 350.656c17.131 16.116 40.267 26.019 65.717 26.019 53.019 0 96-42.981 96-96 0-25.426-9.884-48.542-26.020-65.718l0.047 0.051-466.88-460.8c-29.298-31.451-70.951-51.060-117.184-51.060-88.366 0-160 71.634-160 160 0 46.177 19.562 87.785 50.85 116.989l0.093 0.086 462.304 456.352c39.976 37.624 93.975 60.743 153.373 60.743 123.712 0 224-100.288 224-224 0-59.311-23.051-113.237-60.683-153.31l0.111 0.119-346.464-346.048c-5.223-5.676-8.425-13.283-8.425-21.638 0-17.673 14.327-32 32-32 8.387 0 16.020 3.226 21.726 8.505l-0.021-0.019 350.912 350.592c52.065 52.017 84.27 123.904 84.27 203.312 0 79.456-32.245 151.381-84.362 203.404l-0.004 0.004z" />
<glyph unicode="&#xe907;" glyph-name="fire" horiz-adv-x="704" d="M544 672c-5.568-60.844-29.693-115.189-66.592-158.27l0.32 0.382c-0.096 159.232-125.728 285.888-125.728 285.888-5.2-71.532-28.886-136.636-66.252-191.705l0.876 1.369c-47.423 144.408-136.506 264.337-252.914 348.953l-1.998 1.383c95.552-350.336-32-477.76-32-732.544 0-149.504 126.528-291.456 320-291.456 286.624 0 342.048 105.216 371.68 223.776 40.992 163.232-20.128 352.992-147.392 512.224zM629.6 175.296c-20.64-82.176-44-175.296-309.6-175.296-160.256 0-256 115.648-256 227.456 1.928 82.698 13.485 161.819 33.595 237.454l-1.595-7.054c22.017 79.091 34.671 169.912 34.671 263.689 0 19.369-0.54 38.612-1.605 57.715l0.118-2.652c61.199-90.77 107.57-197.154 132.67-311.508l1.122-6.092c39.85 54.306 78.525 116.070 112.634 180.619l3.942 8.181c18.976-38.432 36.448-167.808 36.448-295.808 57.528 50.27 106.801 107.983 146.861 172.047l1.875 3.217c67.040-120.352 91.264-246.208 64.768-351.968zM557.792 422.56l-27.168-31.52c-40.024-50.416-90.434-90.808-148.168-118.311l-2.52-1.081c-14.748 40.179-23.278 86.574-23.278 134.962 0 1.186 0.005 2.372 0.015 3.556l-0.001-0.182v54.72l-48.544-76.096c-16.384-25.952-29.952-47.488-50.208-76.032-30.688 69.184-52.384 120.32-68.864 166.752l-15.328 43.2-16.608-48.32c-26.536-70.608-41.896-152.214-41.896-237.409 0-11.537 0.282-23.007 0.838-34.406l-0.063 1.607c0-8.837 7.163-16 16-16s16 7.163 16 16v0c-0.391 8.691-0.613 18.882-0.613 29.126 0 68.765 10.032 135.187 28.714 197.882l-1.252-4.896c16.64-42.304 37.632-90.4 65.216-152l11.232-25.088 16.256 22.176c26.56 36.128 42.368 60.448 59.68 87.776 5.23-42.713 15.178-81.53 29.453-118.185l-1.133 3.305 5.824-16.896 16 7.648c62.68 27.393 115.724 66.102 158.767 113.982l0.369 0.418c1.094-11.086 1.718-23.964 1.718-36.987 0-48.163-8.534-94.333-24.173-137.080l0.887 2.771c-0.726-1.762-1.148-3.807-1.148-5.95 0-6.691 4.107-12.422 9.937-14.811l0.107-0.039c1.772-0.725 3.828-1.148 5.982-1.152h0.002c6.671 0.010 12.384 4.101 14.777 9.91l0.039 0.106c16.239 43.85 25.634 94.5 25.634 147.345 0 26.898-2.434 53.227-7.094 78.78l0.404-2.669z" />
<glyph unicode="&#xe908;" glyph-name="t-shirt" d="M1000 753.952l-160 128c-10.852 8.75-24.807 14.046-39.999 14.048h-576.001c-0.011 0-0.024 0-0.037 0-15.171 0-29.104-5.297-40.052-14.143l0.121 0.095-160-128c-14.695-11.827-24.018-29.812-24.018-49.975 0-7.238 1.202-14.196 3.416-20.684l-0.134 0.451 64-192c8.72-25.671 32.608-43.813 60.733-43.813 11.809 0 22.872 3.199 32.368 8.776l-0.301-0.163v-392.544c0-35.346 28.654-64 64-64v0h576c35.346 0 64 28.654 64 64v0 392.576c9.196-5.415 20.258-8.613 32.067-8.613 28.125 0 52.013 18.142 60.6 43.363l0.133 0.451 64 192c2.054 6.001 3.241 12.916 3.241 20.107 0 20.216-9.373 38.242-24.010 49.971l-0.126 0.098zM632.128 832c-26.361-38.828-70.304-64.003-120.128-64.003s-93.767 25.175-119.804 63.498l-0.324 0.505h240.256zM896 512l-96 64v-512h-576v512l-96-64-64 192 160 128h133.664c28.717-57.329 87.011-95.995 154.336-95.995s125.619 38.667 153.885 95.004l0.451 0.992h133.664l160-128z" />
<glyph unicode="&#xe909;" glyph-name="food" d="M944 288.32h-86.112c-1.44 7.68-3.2 15.136-5.12 22.624l153.6 76.8c10.58 5.396 17.699 16.21 17.699 28.688 0 17.728-14.371 32.099-32.099 32.099-5.25 0-10.206-1.261-14.582-3.495l0.182 0.084-146.464-73.376c-56.858 121.984-178.438 205.014-319.411 205.014-171.847 0-314.877-123.381-345.339-286.391l-0.338-2.175h-86.016c-44.183 0-80-35.817-80-80v0c0-0.087-0.001-0.189-0.001-0.291 0-16.263 6.066-31.11 16.059-42.4l-0.059 0.068 112-126.048v-23.712c0.091-44.146 35.854-79.909 79.991-80h608.009c44.139 0.109 79.891 35.861 80 79.99v23.722l111.808 126.048c10.010 11.233 16.142 26.112 16.192 42.422v0.010c0 0.048 0 0.104 0 0.16 0 44.215-35.798 80.069-79.991 80.16h-0.009zM825.6 288.32h-17.984l16 8c0.544-2.688 1.376-5.28 1.984-8zM512 544.8c128.392-0.227 239.024-76.032 289.801-185.29l0.823-1.974-28.512-14.272c-46.198 100.737-146.174 169.444-262.197 169.444-136.426 0-250.665-94.996-280.176-222.449l-0.378-1.939h-32.96c30.885 147.183 159.47 256.166 313.565 256.48h0.035zM658.432 288.32c-25.15 57.072-81.222 96.192-146.432 96.192s-121.282-39.12-146.030-95.171l-0.402-1.021h-34.368c26.959 75.343 97.732 128.279 180.868 128.279 78.622 0 146.186-47.343 175.739-115.076l0.48-1.235-23.872-11.968h-5.984zM512 320.32c-28.216-0.070-53.543-12.383-70.958-31.906l-0.082-0.094h-39.168c22.221 38.583 63.23 64.14 110.208 64.14s87.987-25.557 109.882-63.527l0.326-0.613h-39.2c-17.479 19.636-42.794 31.972-70.992 32.064h-0.016zM512 448.576c-100.885-0.225-186.115-66.993-214.142-158.731l-0.418-1.589h-33.024c29.099 111.452 128.872 192.373 247.545 192.373 103.556 0 192.72-61.618 232.828-150.191l0.651-1.606-28.576-14.304c-35.535 79.479-113.818 133.903-204.837 134.112h-0.027zM832 64v-48c0-8.837-7.163-16-16-16v0h-608c-8.837 0-16 7.163-16 16v0 48l-128 144.288c0 8.837 7.163 16 16 16v0h864c8.837 0 16-7.163 16-16v0zM255.232 586.24l0.256-0.576c2.699-5.245 8.074-8.771 14.274-8.771 8.837 0 16 7.163 16 16 0 0.080-0.001 0.159-0.002 0.239v-0.012c-0.015 1.441-0.225 2.827-0.603 4.142l0.027-0.11c0.030 0.091 0.048 0.195 0.048 0.304s-0.017 0.213-0.050 0.311l0.002-0.007c-2.47 9.134-3.89 19.621-3.89 30.44 0 23.033 6.433 44.564 17.6 62.894l-0.302-0.534c12.641 21.075 20.118 46.501 20.118 73.674 0 15.455-2.419 30.345-6.898 44.313l0.284-1.026c-2.334 5.914-7.999 10.023-14.624 10.023-8.66 0-15.68-7.020-15.68-15.68 0-0.002 0-0.005 0-0.007v0c0.029-1.95 0.402-3.805 1.061-5.517l-0.037 0.109s0 0 0-0.192v-0.288s0-0.256 0-0.384c12.8-29.152 0.448-59.008-13.664-92.8-12.864-21.396-20.474-47.218-20.474-74.818 0-14.383 2.066-28.284 5.919-41.421l-0.261 1.039zM644.96 590.912l0.256-0.576c2.699-5.245 8.074-8.771 14.274-8.771 8.837 0 16 7.163 16 16 0 0.080-0.001 0.159-0.002 0.239v-0.012c-0.030 1.435-0.239 2.808-0.604 4.116l0.028-0.116c0.031 0.096 0.048 0.206 0.048 0.32s-0.018 0.224-0.050 0.328l0.002-0.008c-2.469 9.138-3.888 19.63-3.888 30.453 0 23.025 6.42 44.551 17.567 62.884l-0.303-0.537c12.655 21.061 20.14 46.477 20.14 73.642 0 15.468-2.427 30.369-6.921 44.343l0.285-1.024c-2.308 5.944-7.983 10.081-14.624 10.081-8.642 0-15.648-7.006-15.648-15.648 0-0.034 0-0.068 0-0.102v0.005c0.010-1.959 0.385-3.827 1.060-5.544l-0.036 0.104c-0.006-0.043-0.009-0.093-0.009-0.144s0.003-0.101 0.010-0.15l-0.001 0.006v-0.384c12.8-29.152 0.416-59.008-13.696-92.8-12.851-21.387-20.452-47.197-20.452-74.782 0-14.396 2.070-28.309 5.929-41.457l-0.261 1.039c0.512-0.768 0.704-1.184 0.896-1.632zM480.576 729.28l0.256-0.576c2.699-5.245 8.074-8.771 14.274-8.771 8.837 0 16 7.163 16 16 0 0.080-0.001 0.159-0.002 0.239v-0.012c-0.013 1.429-0.223 2.804-0.603 4.107l0.027-0.107c0.031 0.096 0.048 0.206 0.048 0.32s-0.018 0.224-0.050 0.328l0.002-0.008c-2.469 9.133-3.887 19.618-3.887 30.435 0 23.035 6.432 44.567 17.598 62.899l-0.303-0.535c12.641 21.075 20.118 46.501 20.118 73.674 0 15.455-2.419 30.345-6.898 44.313l0.284-1.026c-2.334 5.914-7.999 10.023-14.624 10.023-8.66 0-15.68-7.020-15.68-15.68 0-0.002 0-0.005 0-0.007v0c0.025-1.961 0.398-3.827 1.061-5.549l-0.037 0.109s0 0 0-0.192c-0.004-0.038-0.006-0.083-0.006-0.128s0.002-0.090 0.007-0.134v0.006-0.384c12.8-29.152 0.448-59.040-13.664-92.8-12.863-21.398-20.471-47.222-20.471-74.823 0-14.381 2.066-28.28 5.916-41.417l-0.261 1.039c0.544-0.608 0.704-1.024 0.896-1.472z" />
<glyph unicode="&#xe90a;" glyph-name="lab" d="M661.824 840.576c-14.478 14.482-34.481 23.439-56.576 23.439s-42.098-8.957-56.576-23.439l-45.184-45.216c-14.525-14.485-23.512-34.518-23.512-56.649 0-15.536 4.429-30.038 12.092-42.312l-0.196 0.337-434.464-174.016c-34.091-15.235-57.418-48.846-57.418-87.906 0-26.631 10.844-50.729 28.357-68.121l0.006-0.005 407.040-402.56c16.782-16.85 39.816-27.462 65.327-28.062l0.113-0.002h2.464c0.031 0 0.068 0 0.105 0 6.875 0 13.579 0.734 20.037 2.129l-0.622-0.113c31.99 6.724 57.684 28.728 69.435 57.854l0.229 0.642 170.912 428.032c12.336-8.165 27.478-13.027 43.756-13.027 22.105 0 42.116 8.965 56.595 23.458l0.001 0.001 45.056 44.96c14.587 14.495 23.615 34.569 23.615 56.752 0 22.087-8.951 42.084-23.423 56.561v0zM533.056 20.256c-3.998-9.943-12.561-17.301-23.022-19.546l-0.21-0.038c-1.968-0.431-4.229-0.677-6.548-0.677-8.825 0-16.815 3.572-22.604 9.35l0.001-0.001-407.296 402.816c-5.743 5.783-9.293 13.751-9.293 22.548 0 13.011 7.766 24.209 18.915 29.211l199.147 79.761c134.080-44.544 268.16-1.632 402.24-144.704zM863.744 525.44l-45.216-45.216c-2.895-2.894-6.895-4.685-11.312-4.685s-8.417 1.79-11.312 4.685l-56.544 56.512-45.888-114.816 3.872 9.6c-96.32 96-194.24 108.288-282.56 119.136-28.384 3.488-55.872 7.136-82.944 12.96l271.744 108.8-54.88 54.848c-2.894 2.895-4.685 6.895-4.685 11.312s1.79 8.417 4.685 11.312l45.248 45.28c2.895 2.894 6.895 4.685 11.312 4.685s8.417-1.79 11.312-4.685l247.168-247.232c2.856-2.889 4.621-6.862 4.621-11.248s-1.765-8.359-4.622-11.249l0.001 0.001zM528 288c44.183 0 80 35.817 80 80s-35.817 80-80 80c-44.183 0-80-35.817-80-80v0c0-44.183 35.817-80 80-80v0zM528 416c26.51 0 48-21.49 48-48s-21.49-48-48-48c-26.51 0-48 21.49-48 48v0c0 26.51 21.49 48 48 48v0zM944 960c-44.183 0-80-35.817-80-80s35.817-80 80-80c44.183 0 80 35.817 80 80v0c0 44.183-35.817 80-80 80v0zM944 832c-26.51 0-48 21.49-48 48s21.49 48 48 48c26.51 0 48-21.49 48-48v0c0-26.51-21.49-48-48-48v0zM256 416c0-35.346 28.654-64 64-64s64 28.654 64 64c0 35.346-28.654 64-64 64v0c-35.346 0-64-28.654-64-64v0zM320 448c17.673 0 32-14.327 32-32s-14.327-32-32-32c-17.673 0-32 14.327-32 32v0c0 17.673 14.327 32 32 32v0zM416 192c17.673 0 32 14.327 32 32s-14.327 32-32 32c-17.673 0-32-14.327-32-32v0c0-17.673 14.327-32 32-32v0zM928 736c-17.673 0-32-14.327-32-32s14.327-32 32-32c17.673 0 32 14.327 32 32v0c0 17.673-14.327 32-32 32v0z" />
<glyph unicode="&#xe90b;" glyph-name="study" d="M1024 704c0 0.107 0.001 0.234 0.001 0.361 0 45.279-31.484 83.205-73.754 93.080l-0.646 0.127-416.416 96c-6.423 1.514-13.798 2.382-21.376 2.382s-14.953-0.868-22.031-2.51l0.655 0.128-416-96c-43.006-10.119-74.528-48.162-74.528-93.568s31.523-83.449 73.877-93.439l0.651-0.129 85.568-19.744v-270.688c0-84.928 97.216-160 352-160s352 75.072 352 160v270.688l85.568 19.744c42.933 9.99 74.433 47.924 74.433 93.214 0 0.124 0 0.249-0.001 0.373v-0.019zM800 320c0-35.392-96-96-288-96s-288 60.608-288 96v256l266.816-61.568c6.423-1.514 13.798-2.382 21.376-2.382s14.953 0.868 22.031 2.51l-0.655-0.128 266.432 61.568v-256zM519.2 576.8c-2.164-0.508-4.648-0.799-7.2-0.799s-5.036 0.291-7.421 0.842l0.221-0.043-416 96c-14.359 3.356-24.889 16.048-24.889 31.2s10.531 27.844 24.673 31.157l0.217 0.043 416 96c2.164 0.508 4.648 0.799 7.2 0.799s5.036-0.291 7.421-0.842l-0.221 0.043 416-96c14.359-3.356 24.889-16.048 24.889-31.2s-10.531-27.844-24.673-31.157l-0.217-0.043zM928 544v-288c0-17.673 14.327-32 32-32s32 14.327 32 32v0 288c0 17.673-14.327 32-32 32s-32-14.327-32-32v0zM960 192c-35.2 0-64-92.8-64-128 0-35.346 28.654-64 64-64s64 28.654 64 64v0c0 35.2-28.8 128-64 128z" />
<glyph unicode="&#xe90c;" glyph-name="megaphone" d="M800 960c-65.696 0-117.28-45.12-154.368-114.752l-0.704 0.384c-53.792-105.376-133.92-173.632-221.696-173.632h-295.232c-71.776 0-128-70.4-128-160s56.224-160 128-160c35.346 0 64-28.654 64-64v0-288c0-35.346 28.654-64 64-64v0h128c35.346 0 64 28.654 64 64v0 32c0 32-32 46.304-32 64v224c0 0.736 0.512 1.248 0.576 1.984 0.321 4.672 1.61 8.977 3.667 12.809l-0.083-0.169c0.608 1.073 1.232 1.994 1.922 2.86l-0.034-0.044c2.525 3.795 5.732 6.93 9.471 9.3l0.129 0.076c0.192 0 0.256 0.32 0.448 0.448s0.224 0 0.352 0c2.44 1.096 5.284 1.984 8.249 2.525l0.231 0.035c80.8-8.544 153.92-73.6 204.064-171.936l0.864 0.384c37.024-69.28 88.544-114.272 154.144-114.272 147.2 0 224 225.376 224 448s-76.8 448-224 448zM640 512c0.024 33.849 1.93 67.223 5.618 100.058l-0.37-4.058h90.752c35.36 0 64-43.008 64-96s-28.64-96-64-96h-90.752c-3.32 28.779-5.226 62.153-5.248 95.968v0.032zM64 512c0 52.992 28.8 96 64 96h224.448c-20.246-26.314-32.447-59.732-32.447-96s12.201-69.686 32.722-96.373l-0.276 0.373h-224.448c-35.2 0-64 42.944-64 96zM384 0h-128v288c0 0.053 0 0.116 0 0.18 0 23.508-6.382 45.526-17.508 64.415l0.324-0.595h22.4v-0.384h96.256c-3.421-9.41-5.422-20.271-5.472-31.594v-224.022c1.048-24.847 11.355-47.101 27.534-63.566l-0.014 0.014c1.376-1.696 3.040-3.456 4.48-5.312v-27.136zM423.392 415.616h-7.392v0.384c-35.2 0-64 42.944-64 96s28.8 96 64 96h7.232c64.062 1.418 122.206 25.639 166.89 64.832l-0.298-0.256c-8.815-48.341-13.856-103.974-13.856-160.784s5.041-112.443 14.699-166.476l-0.843 5.692c-44.38 38.953-102.526 63.186-166.298 64.603l-0.294 0.005zM800 128c-64.576 0-120 91.872-145.312 224h81.312c71.776 0 128 70.24 128 160s-56.224 160-128 160h-81.312c25.312 132.064 80.736 224 145.312 224 88.384 0 160-171.936 160-384s-71.616-384-160-384z" />
<glyph unicode="&#xe90d;" glyph-name="music" d="M1001.12 944.992c-11.023 9.334-25.404 15.008-41.11 15.008-0.004 0-0.007 0-0.011 0h0.001c-0.017 0-0.036 0-0.056 0-3.905 0-7.726-0.361-11.431-1.051l0.383 0.059-544-96c-30.244-5.473-52.885-31.595-52.896-63.007v-549.441c-32.979 23.435-74.066 37.464-118.43 37.464-1.115 0-2.227-0.009-3.337-0.026l0.168 0.002c-28.979-0.079-56.795-4.947-82.734-13.851l1.806 0.539c-58.455-18.358-105.552-58.299-132.883-110.258l-0.589-1.23c-10.066-19.807-15.963-43.191-15.963-67.952 0-18.639 3.341-36.497 9.458-53.009l-0.343 1.056c28.758-63.927 91.89-107.633 165.229-107.633 3.879 0 7.73 0.122 11.549 0.363l-0.522-0.026c28.961 0.039 56.77 4.91 82.685 13.849l-1.789-0.537c58.503 18.268 105.653 58.179 133.011 110.134l0.589 1.226c9.582 19.656 15.273 42.738 15.487 67.127l0.001 0.073h0.608v512.128c3.938 0.006 7.792 0.343 11.542 0.985l-0.406-0.057 532.864 94.080v-388.448c-32.982 23.435-74.073 37.464-118.44 37.464-1.111 0-2.22-0.009-3.327-0.026l0.167 0.002c-28.979-0.079-56.795-4.947-82.734-13.851l1.806 0.539c-58.464-18.341-105.566-58.287-132.883-110.258l-0.589-1.23c-10.066-19.807-15.963-43.191-15.963-67.952 0-18.639 3.341-36.497 9.458-53.009l-0.343 1.056c28.746-63.933 91.875-107.646 165.214-107.646 3.952 0 7.875 0.127 11.764 0.377l-0.53-0.027c28.971 0.039 56.792 4.91 82.718 13.849l-1.79-0.537c58.503 18.268 105.653 58.179 133.011 110.134l0.589 1.226c9.582 19.656 15.273 42.738 15.487 67.127l0.001 0.073h0.384v672.128c-0.016 19.627-8.864 37.183-22.784 48.913l-0.096 0.079zM245.92 9.984c-76.8-25.6-155.936-0.544-176.96 55.712s24.032 122.688 100.704 148.224 155.936 0.64 176.928-55.68-23.904-122.688-100.576-148.256zM852.8 105.984c-76.8-25.6-155.968-0.544-176.992 55.712s24.032 122.688 100.704 148.224 155.968 0.64 176.96-55.68-23.904-122.688-100.576-148.256zM958.72 800l-544-96v96l544 96v-96z" />
<glyph unicode="&#xe90e;" glyph-name="data" horiz-adv-x="896" d="M448 960c-215.776 0-448-65.056-448-208v-608c0-142.88 232.224-208 448-208s448 65.12 448 208v608c0 142.944-232.224 208-448 208zM832 144c0-79.488-171.904-144-384-144s-384 64.512-384 144v119.552c66.112-68.128 225.632-103.552 384-103.552s317.888 35.424 384 103.552v-119.552zM832 336v0c0-0.32 0-0.704 0-0.992 0-79.008-171.936-143.008-384-143.008s-384 64-384 143.008c0 0.288 0 0.672 0 0.992v0 119.552c66.112-68.128 225.632-103.552 384-103.552s317.888 35.424 384 103.552v-119.552zM832 528v0c0-0.32 0-0.704 0-0.992 0-79.008-171.936-143.008-384-143.008s-384 64-384 143.008c0 0.288 0 0.672 0 0.992v0 109.92c83.872-64 237.632-93.92 384-93.92s300.128 30.048 384 93.92v-109.92zM448 608c-212.096 0-384 64.512-384 144s171.904 144 384 144 384-64.448 384-144-171.904-144-384-144zM736 96c17.673 0 32 14.327 32 32s-14.327 32-32 32c-17.673 0-32-14.327-32-32v0c0-17.673 14.327-32 32-32v0zM736 288c17.673 0 32 14.327 32 32s-14.327 32-32 32c-17.673 0-32-14.327-32-32v0c0-17.673 14.327-32 32-32v0zM736 480c17.673 0 32 14.327 32 32s-14.327 32-32 32c-17.673 0-32-14.327-32-32v0c0-17.673 14.327-32 32-32v0z" />
<glyph unicode="&#xe90f;" glyph-name="banknote" d="M1005.28 621.248l-320 320c-11.585 11.603-27.6 18.781-45.291 18.781-28.595 0-52.81-18.753-61.017-44.632l-0.124-0.453c-15.666-49.157-42.127-91.11-76.729-124.731l-0.071-0.069c-53.065-48.008-112.952-90.107-177.635-124.355l-4.765-2.301c-79.49-42.113-148.014-90.903-209.322-147.404l0.682 0.62c-49.039-47.998-86.412-107.717-107.597-174.635l-0.819-2.997c-1.8-5.636-2.837-12.12-2.837-18.845 0-17.719 7.201-33.756 18.835-45.345l320.002-320.002c11.581-11.58 27.58-18.742 45.251-18.742 28.604 0 52.825 18.765 61.025 44.656l0.124 0.453c15.655 49.16 42.119 91.116 76.728 124.73l0.072 0.070c53.053 48.004 112.943 90.075 177.64 124.266l4.76 2.294c79.464 42.196 147.972 91.012 209.297 147.507l-0.689-0.627c49.052 47.989 86.428 107.712 107.599 174.638l0.817 2.994c1.8 5.636 2.837 12.119 2.837 18.845 0 17.687-7.175 33.698-18.773 45.282l-0.001 0.001zM384 0l-320 320c90.912 294.4 485.088 281.6 576 576 106.016-105.952 214.048-214.016 320-320-90.912-294.4-485.088-281.6-576-576zM625.92 483.2c-8.778 7.782-19.299 13.817-30.886 17.438l-0.602 0.162c-7.659 2.28-16.46 3.591-25.567 3.591-2.14 0-4.262-0.072-6.366-0.215l0.285 0.015c-11.754-0.979-22.62-3.582-32.774-7.598l0.774 0.27c-10.72-4.192-21.536-8.736-32.416-13.984-17.184 19.744-34.368 39.232-51.584 57.376 5.775 5.941 13.555 9.907 22.245 10.803l0.155 0.013c0.928 0.043 2.017 0.067 3.111 0.067 6.306 0 12.424-0.806 18.256-2.322l-0.503 0.111c6.752-1.664 12.8-3.2 18.624-4.256 1.148-0.275 2.466-0.432 3.821-0.432 4.346 0 8.314 1.619 11.333 4.288l-0.018-0.016c4.412 3.764 7.272 9.234 7.55 15.377l0.002 0.047c0.003 0.148 0.005 0.322 0.005 0.497 0 6.987-2.799 13.32-7.337 17.939l0.004-0.004c-6.15 7.287-14.667 12.406-24.354 14.17l-0.254 0.038c-3.938 0.716-8.47 1.125-13.098 1.125-5.905 0-11.655-0.666-17.178-1.928l0.516 0.099c-10.894-2.533-20.507-6.491-29.255-11.741l0.455 0.253c-8.306-4.774-15.484-10.158-21.934-16.3l0.046 0.044-6.24 5.856c-2.122 1.989-4.985 3.211-8.132 3.211-0.179 0-0.356-0.004-0.533-0.012l0.025 0.001c-3.534-0.012-6.68-1.663-8.718-4.233l-0.018-0.023c-1.859-2.137-2.992-4.949-2.992-8.025 0-3.637 1.584-6.904 4.1-9.149l0.012-0.011c2.080-1.76 4.16-3.488 6.24-5.312-7.751-9.359-14.508-19.988-19.844-31.413l-0.38-0.907c-4.789-9.933-8.182-21.47-9.555-33.62l-0.045-0.492c-0.356-2.61-0.56-5.626-0.56-8.69 0-7.973 1.377-15.623 3.907-22.728l-0.147 0.473c4.073-10.283 10.597-18.855 18.874-25.276l0.134-0.1c12.634-10.512 29.030-16.892 46.917-16.892 2.274 0 4.524 0.103 6.745 0.305l-0.286-0.021c24.647 1.927 47.241 9.157 67.152 20.541l-0.784-0.413c18.912-21.824 37.856-43.52 56.768-63.648-5.79-5.462-12.915-9.572-20.831-11.788l-0.353-0.084c-2.324-0.58-4.991-0.913-7.736-0.913-3.193 0-6.28 0.45-9.202 1.291l0.234-0.058c-5.279 1.671-9.873 3.944-14.033 6.803l0.177-0.115c-3.618 2.566-7.757 5.055-12.080 7.232l-0.56 0.256c-3.72 1.949-8.114 3.123-12.776 3.2h-0.024c-5.555-0.357-10.494-2.735-14.143-6.399l-0.001-0.001c-4.761-3.766-7.806-9.521-7.872-15.989v-0.011c0.427-7.117 3.451-13.456 8.129-18.145l-0.001 0.001c5.822-6.332 12.816-11.483 20.653-15.128l0.403-0.168c8.415-4.041 18.225-6.674 28.575-7.317l0.225-0.011c1.399-0.087 3.034-0.136 4.681-0.136 10.401 0 20.341 1.976 29.464 5.574l-0.545-0.189c13.826 5.494 25.573 13.563 35.157 23.698l0.043 0.046c5.6-5.44 11.232-10.624 16.8-15.616 2.11-1.77 4.856-2.846 7.852-2.846 3.835 0 7.259 1.761 9.506 4.52l0.018 0.022c1.911 2.13 3.079 4.96 3.079 8.063 0 0.462-0.026 0.919-0.076 1.368l0.005-0.055c-0.203 3.155-1.709 5.922-3.981 7.793l-0.019 0.015c-5.632 4.512-11.232 9.248-16.864 14.24 8.703 10.556 16.358 22.512 22.492 35.334l0.452 1.050c5.009 10.238 8.597 22.131 10.122 34.66l0.054 0.54c0.278 2.22 0.436 4.79 0.436 7.396 0 8.171-1.558 15.979-4.393 23.142l0.149-0.426c-4.219 9.999-10.664 18.345-18.748 24.7l-0.132 0.1zM447.040 461.504c-0.493-0.028-1.069-0.044-1.649-0.044-8.706 0-16.576 3.581-22.218 9.35l-0.006 0.006c-2.865 2.762-5.025 6.236-6.197 10.138l-0.043 0.166c-0.934 2.868-1.472 6.168-1.472 9.595 0 1.333 0.081 2.646 0.24 3.936l-0.015-0.155c0.555 5.518 2.113 10.562 4.493 15.108l-0.109-0.228c2.83 5.756 6.292 10.702 10.394 15.036l-0.026-0.028c16.224-16 32.384-33.824 48.608-52.128-9.145-5.683-20.003-9.523-31.644-10.725l-0.324-0.027zM597.984 397.504c-2.882-5.403-6.232-10.060-10.115-14.214l0.035 0.038c-17.888 18.112-35.84 37.984-53.728 58.432 4.544 2.048 9.376 4.192 14.56 6.4 4.47 1.931 9.691 3.498 15.124 4.45l0.428 0.062c1.836 0.29 3.953 0.456 6.109 0.456 3.443 0 6.786-0.423 9.982-1.22l-0.283 0.060c5.796-1.571 10.762-4.557 14.682-8.57l0.006-0.006c4.053-3.733 7.034-8.572 8.467-14.037l0.045-0.203c0.657-2.673 1.034-5.742 1.034-8.898 0-2.374-0.213-4.698-0.621-6.954l0.035 0.236c-1.114-6.050-3.106-11.449-5.864-16.36l0.136 0.264zM470.912 250.304v0c-21.217-16.055-40.005-32.326-57.67-49.733l0.070 0.069c-16.585-16.528-31.918-34.287-45.859-53.136l-0.893-1.264-21.888-29.856c-1.811-2.558-2.895-5.742-2.895-9.179 0-8.837 7.163-16 16-16 4.628 0 8.797 1.965 11.718 5.105l0.009 0.010c0.907 0.928 1.694 1.979 2.33 3.125l0.038 0.075 20.448 28c13.835 18.682 28.127 35.187 43.564 50.54l0.020 0.020c16.703 16.618 34.59 32.090 53.507 46.262l1.309 0.938c4.446 2.891 7.346 7.836 7.346 13.457 0 8.837-7.163 16-16 16-4.324 0-8.247-1.715-11.126-4.502l0.004 0.004zM588.064 713.184c-16.386-16.116-33.89-31.246-52.328-45.206l-1.336-0.97c-1.448-0.762-2.691-1.678-3.777-2.753l0.001 0.001c-3.066-2.947-4.971-7.083-4.971-11.664 0-8.931 7.24-16.171 16.171-16.171 4.35 0 8.299 1.718 11.205 4.512l-0.005-0.005c21.207 16.105 39.993 32.385 57.682 49.777l-0.082-0.081c16.564 16.529 31.886 34.287 45.823 53.131l0.897 1.269 21.888 30.016c2.653 2.86 4.281 6.704 4.281 10.928 0 8.886-7.203 16.089-16.089 16.089-4.662 0-8.86-1.983-11.799-5.151l-0.009-0.010c-1.074-1.138-2.001-2.432-2.739-3.841l-0.045-0.095-21.28-29.12c-13.8-18.759-28.053-35.315-43.456-50.72v0z" />
<glyph unicode="&#xe910;" glyph-name="params" d="M256 767.296v96.704c0 53.019-42.981 96-96 96s-96-42.981-96-96v0-96.704c-39.020-29.216-64.003-75.33-64.003-127.28s24.983-98.064 63.59-126.984l0.413-0.296v-480.736c0-53.019 42.981-96 96-96s96 42.981 96 96v0 480.736c39.020 29.216 64.003 75.33 64.003 127.28s-24.983 98.064-63.59 126.984l-0.413 0.296zM128 864c0 17.673 14.327 32 32 32s32-14.327 32-32v0-67.2c-9.62 2.035-20.674 3.2-32 3.2s-22.38-1.165-33.048-3.382l1.048 0.182v67.2zM192 32c0-17.673-14.327-32-32-32s-32 14.327-32 32v0 451.2c9.62-2.075 20.671-3.264 32-3.264s22.38 1.189 33.036 3.448l-1.036-0.184v-451.2zM251.68 613.12c-0.48-1.696-0.96-3.36-1.568-5.056-3.129-8.986-7.212-16.777-12.256-23.834l0.192 0.282c0-0.192-0.32-0.32-0.448-0.512-5.655-7.688-12.156-14.3-19.477-19.892l-0.235-0.172-0.32-0.256c-7.348-5.587-15.818-10.241-24.934-13.549l-0.666-0.211c-9.496-3.741-20.495-5.909-32-5.909s-22.504 2.168-32.61 6.119l0.61-0.21c-9.782 3.519-18.252 8.173-25.837 13.932l0.237-0.172-0.32 0.256c-7.56 5.76-14.061 12.373-19.525 19.797l-0.187 0.267c0 0.192-0.32 0.32-0.448 0.512-4.815 6.758-8.875 14.527-11.799 22.831l-0.201 0.657c-0.608 1.696-1.056 3.36-1.568 5.056-2.735 8.034-4.313 17.289-4.313 26.912s1.579 18.878 4.491 27.519l-0.178-0.607c0.512 1.664 0.96 3.36 1.568 4.992 3.167 9.011 7.258 16.82 12.295 23.91l-0.199-0.294c0 0.192 0.32 0.32 0.448 0.512 5.668 7.677 12.167 14.287 19.478 19.892l0.234 0.172c0.119 0.083 0.224 0.167 0.322 0.258l-0.002-0.002c7.356 5.535 15.822 10.174 24.917 13.509l0.683 0.219c9.498 3.728 20.497 5.889 32 5.889s22.502-2.161 32.612-6.099l-0.612 0.21c9.778-3.553 18.244-8.193 25.853-13.91l-0.253 0.182c0.096-0.090 0.201-0.174 0.311-0.25l0.009-0.006c7.542-5.78 14.040-12.391 19.523-19.797l0.189-0.267c0-0.192 0.32-0.32 0.448-0.512 4.836-6.795 8.918-14.606 11.861-22.954l0.203-0.662c0.608-1.632 1.088-3.2 1.568-4.992 2.702-7.982 4.262-17.176 4.262-26.734 0-9.666-1.595-18.959-4.536-27.632l0.178 0.606zM960 767.296v96.704c0 53.019-42.981 96-96 96s-96-42.981-96-96v0-96.704c-39.020-29.216-64.003-75.33-64.003-127.28s24.983-98.064 63.59-126.984l0.413-0.296v-480.736c0-53.019 42.981-96 96-96s96 42.981 96 96v0 480.736c39.020 29.216 64.003 75.33 64.003 127.28s-24.983 98.064-63.59 126.984l-0.413 0.296zM832 864c0 17.673 14.327 32 32 32s32-14.327 32-32v0-67.2c-9.62 2.035-20.674 3.2-32 3.2s-22.38-1.165-33.048-3.382l1.048 0.182v67.2zM896 32c0-17.673-14.327-32-32-32s-32 14.327-32 32v0 451.2c9.62-2.075 20.671-3.264 32-3.264s22.38 1.189 33.036 3.448l-1.036-0.184v-451.2zM955.68 613.12c-0.48-1.696-0.96-3.36-1.568-5.056-3.129-8.986-7.212-16.777-12.256-23.834l0.192 0.282c0-0.192-0.32-0.32-0.448-0.512-5.655-7.688-12.156-14.3-19.477-19.892l-0.235-0.172-0.32-0.256c-7.348-5.587-15.818-10.241-24.934-13.549l-0.666-0.211c-9.496-3.741-20.495-5.909-32-5.909s-22.504 2.168-32.61 6.119l0.61-0.21c-9.782 3.519-18.252 8.173-25.837 13.932l0.237-0.172-0.32 0.256c-7.556 5.764-14.057 12.376-19.524 19.797l-0.188 0.267c-0.141 0.154-0.277 0.321-0.404 0.495l-0.012 0.017c-4.877 6.773-8.971 14.565-11.899 22.906l-0.197 0.646c-0.608 1.696-1.088 3.36-1.568 5.056-2.739 8.034-4.32 17.288-4.32 26.912s1.581 18.878 4.498 27.518l-0.178-0.606c0.48 1.664 0.96 3.36 1.568 4.992 3.142 9.010 7.235 16.822 12.289 23.901l-0.193-0.285c0.139 0.191 0.275 0.358 0.42 0.517l-0.004-0.005c5.672 7.673 12.17 14.284 19.478 19.892l0.234 0.172c0.119 0.082 0.224 0.167 0.322 0.258l-0.002-0.002c7.356 5.535 15.822 10.175 24.917 13.509l0.683 0.219c9.498 3.728 20.497 5.889 32 5.889s22.502-2.161 32.612-6.099l-0.612 0.21c9.778-3.553 18.244-8.193 25.853-13.91l-0.253 0.182c0.096-0.090 0.201-0.174 0.311-0.25l0.009-0.006c7.542-5.78 14.040-12.391 19.523-19.797l0.189-0.267c0-0.192 0.32-0.32 0.448-0.512 4.836-6.795 8.918-14.606 11.861-22.954l0.203-0.662c0.608-1.632 1.088-3.2 1.568-4.992 2.739-8.034 4.32-17.288 4.32-26.912s-1.581-18.878-4.498-27.518l0.178 0.606zM608 383.296v480.704c0 53.019-42.981 96-96 96s-96-42.981-96-96v0-480.704c-39.020-29.216-64.003-75.33-64.003-127.28s24.983-98.064 63.59-126.984l0.413-0.296v-96.736c0-53.019 42.981-96 96-96s96 42.981 96 96v0 96.736c39.020 29.216 64.003 75.33 64.003 127.28s-24.983 98.064-63.59 126.984l-0.413 0.296zM480 864c0 17.673 14.327 32 32 32s32-14.327 32-32v0-451.2c-9.62 2.035-20.674 3.2-32 3.2s-22.38-1.165-33.048-3.382l1.048 0.182v451.2zM544 32c0-17.673-14.327-32-32-32s-32 14.327-32 32v0 67.2c9.62-2.075 20.671-3.264 32-3.264s22.38 1.189 33.036 3.448l-1.036-0.184v-67.2zM603.68 229.12c-0.48-1.696-0.96-3.36-1.568-5.056-3.129-8.986-7.212-16.777-12.256-23.834l0.192 0.282c0-0.192-0.32-0.32-0.448-0.512-5.655-7.688-12.156-14.3-19.477-19.892l-0.235-0.172-0.32-0.256c-7.348-5.587-15.818-10.241-24.934-13.549l-0.666-0.211c-9.496-3.741-20.495-5.909-32-5.909s-22.504 2.168-32.61 6.119l0.61-0.21c-9.782 3.519-18.252 8.173-25.837 13.932l0.237-0.172-0.32 0.256c-7.556 5.764-14.057 12.376-19.524 19.797l-0.188 0.267c-0.141 0.154-0.277 0.321-0.404 0.495l-0.012 0.017c-4.877 6.773-8.971 14.565-11.899 22.906l-0.197 0.646c-0.608 1.696-1.088 3.36-1.568 5.056-2.739 8.034-4.32 17.288-4.32 26.912s1.581 18.878 4.498 27.518l-0.178-0.606c0.48 1.664 0.96 3.36 1.568 4.992 3.142 9.010 7.235 16.822 12.289 23.901l-0.193-0.285c0.139 0.191 0.275 0.358 0.42 0.517l-0.004-0.005c5.672 7.673 12.17 14.284 19.478 19.892l0.234 0.172c0.119 0.082 0.224 0.167 0.322 0.258l-0.002-0.002c7.356 5.535 15.822 10.175 24.917 13.509l0.683 0.219c9.498 3.728 20.497 5.889 32 5.889s22.502-2.161 32.612-6.099l-0.612 0.21c9.778-3.553 18.244-8.193 25.853-13.91l-0.253 0.182c0.096-0.090 0.201-0.174 0.311-0.25l0.009-0.006c7.542-5.78 14.040-12.391 19.523-19.797l0.189-0.267c0-0.192 0.32-0.32 0.448-0.512 4.836-6.795 8.918-14.606 11.861-22.954l0.203-0.662c0.608-1.632 1.088-3.2 1.568-4.992 2.739-8.034 4.32-17.288 4.32-26.912s-1.581-18.878-4.498-27.518l0.178 0.606z" />
<glyph unicode="&#xe911;" glyph-name="paperplane" d="M1009.376 954.88c-4.913 3.227-10.935 5.148-17.406 5.148-6.634 0-12.797-2.019-17.907-5.476l0.113 0.072-960-640c-8.627-5.822-14.226-15.562-14.226-26.61 0-13.391 8.226-24.861 19.9-29.633l0.214-0.077 250.368-100.192 117.728-205.984c5.593-9.56 15.773-15.903 27.442-16h0.398c0.002 0 0.004 0 0.007 0 11.599 0 21.757 6.172 27.369 15.41l0.080 0.142 66.464 110.816 310.208-124.064c3.503-1.513 7.58-2.405 11.862-2.432h0.010c15.813 0.008 28.944 11.484 31.525 26.562l0.027 0.19 160 960c0.277 1.583 0.436 3.405 0.436 5.264 0 11.21-5.764 21.074-14.49 26.789l-0.122 0.075zM100.384 295.136l741.6 494.432-539.2-577.184c-2.416 1.788-5.158 3.518-8.026 5.043l-0.358 0.173zM326.080 189.888c-0.081 0.086-0.154 0.18-0.219 0.28l-0.005 0.008 606.144 648.832-516.768-805.184zM806.976 12.512l-273.312 109.312c-5.914 2.215-12.747 3.593-19.873 3.806l-0.095 0.002 420.704 652.448z" />
<glyph unicode="&#xe912;" glyph-name="clock" horiz-adv-x="704" d="M320 608c17.673 0 32 14.327 32 32s-14.327 32-32 32c-17.673 0-32-14.327-32-32v0c0-17.673 14.327-32 32-32v0zM320 288c-17.673 0-32-14.327-32-32s14.327-32 32-32c17.673 0 32 14.327 32 32v0c0 17.673-14.327 32-32 32v0zM128 480c-17.673 0-32-14.327-32-32s14.327-32 32-32c17.673 0 32 14.327 32 32v0c0 17.673-14.327 32-32 32v0zM480 448c0-17.673 14.327-32 32-32s32 14.327 32 32c0 17.673-14.327 32-32 32v0c-17.673 0-32-14.327-32-32v0zM161.632 334.88c-5.793-5.791-9.376-13.793-9.376-22.631 0-17.673 14.327-32 32-32s32 14.327 32 32c0 8.838-3.583 16.84-9.376 22.631v0c-5.791 5.789-13.789 9.369-22.624 9.369s-16.833-3.58-22.624-9.369v0zM161.632 606.368c-5.793-5.791-9.376-13.793-9.376-22.631 0-17.673 14.327-32 32-32s32 14.327 32 32c0 8.838-3.583 16.84-9.376 22.631v0c-5.791 5.789-13.789 9.369-22.624 9.369s-16.833-3.58-22.624-9.369v0zM433.12 334.88c-5.793-5.791-9.376-13.793-9.376-22.631 0-17.673 14.327-32 32-32s32 14.327 32 32c0 8.838-3.583 16.84-9.376 22.631v0c-5.791 5.789-13.789 9.369-22.624 9.369s-16.833-3.58-22.624-9.369v0zM640 512c-2.529-0.365-4.695-0.812-6.815-1.373l0.415 0.093c-11.964 57.089-37.815 106.855-73.877 147.324l0.277-0.316-45.92 249.952c-5.699 29.903-31.589 52.217-62.709 52.32h-256.011c-0.006 0-0.012 0-0.019 0-31.216 0-57.213-22.349-62.862-51.92l-0.064-0.4-44.8-241.536c-54.252-56.471-87.662-133.318-87.662-217.968 0-82.748 31.925-158.039 84.13-214.229l-0.18 0.196 45.184-245.984c5.778-29.893 31.736-52.16 62.895-52.16 0.006 0 0.012 0 0.018 0h255.999c0.006 0 0.012 0 0.019 0 31.216 0 57.213 22.349 62.862 51.92l0.064 0.4 45.6 245.792c37.697 40.997 64.845 92.266 76.788 149.131l0.364 2.069c1.742-0.499 3.908-0.958 6.117-1.278l0.283-0.034c35.326 0.027 63.952 28.671 63.952 64 0 35.346-28.654 64-64 64-0.017 0-0.034 0-0.051 0h0.003zM195.36 896h256l32-172.352c-45.664 27.858-100.906 44.351-160 44.351s-114.336-16.493-161.373-45.127l1.373 0.777zM448 0h-256l-32 172.352c45.664-27.858 100.906-44.351 160-44.351s114.336 16.493 161.373 45.127l-1.373-0.777zM320 192c-141.385 0-256 114.615-256 256s114.615 256 256 256c141.385 0 256-114.615 256-256v0c-0.182-141.312-114.688-255.818-255.982-256h-0.018zM478.112 607.168c-1.962 1.928-4.654 3.117-7.623 3.117-2.615 0-5.015-0.923-6.892-2.461l0.019 0.015-166.016-137.12c-5.929-5.867-9.6-14.005-9.6-23 0-0.003 0-0.006 0-0.009v0c0-0.040 0-0.088 0-0.136 0-8.7 3.535-16.573 9.247-22.263l0.001-0.001c5.823-5.756 13.832-9.312 22.672-9.312 0.028 0 0.056 0 0.084 0h-0.004c8.677 0.016 16.56 3.399 22.417 8.912l-0.017-0.016 59.136 71.168 77.632 96.672c1.396 1.815 2.237 4.119 2.237 6.62 0 3.061-1.261 5.828-3.291 7.81l-0.002 0.002z" />
<glyph unicode="&#xe913;" glyph-name="note" d="M1005.248 717.248l-192 192c-11.579 11.583-27.576 18.748-45.247 18.752h-672.001c-53.019 0-96-42.981-96-96v0-768c0-53.019 42.981-96 96-96v0h832c53.019 0 96 42.981 96 96v0 608c-0.004 17.671-7.169 33.669-18.752 45.248v0zM960 64c0-17.673-14.327-32-32-32v0h-832c-17.673 0-32 14.327-32 32v0 768c0 17.673 14.327 32 32 32v0h640v-128c0-53.019 42.981-96 96-96v0h128v-576zM864 672h-32c-35.346 0-64 28.654-64 64v0 0 128l192-192h-96zM496 704h160c8.837 0 16 7.163 16 16s-7.163 16-16 16v0h-160c-8.837 0-16-7.163-16-16s7.163-16 16-16v0zM496 608h160c8.837 0 16 7.163 16 16s-7.163 16-16 16v0h-160c-8.837 0-16-7.163-16-16s7.163-16 16-16v0zM480 528c0-8.837 7.163-16 16-16v0h384c8.837 0 16 7.163 16 16s-7.163 16-16 16v0h-384c-8.837 0-16-7.163-16-16v0zM880 352h-736c-8.837 0-16-7.163-16-16s7.163-16 16-16v0h736c8.837 0 16 7.163 16 16s-7.163 16-16 16v0zM880 256h-736c-8.837 0-16-7.163-16-16s7.163-16 16-16v0h736c8.837 0 16 7.163 16 16s-7.163 16-16 16v0zM880 160h-736c-8.837 0-16-7.163-16-16s7.163-16 16-16v0h736c8.837 0 16 7.163 16 16s-7.163 16-16 16v0zM880 448h-736c-8.837 0-16-7.163-16-16s7.163-16 16-16v0h736c8.837 0 16 7.163 16 16s-7.163 16-16 16v0zM160 512h224c17.673 0 32 14.327 32 32v0 192c0 17.673-14.327 32-32 32v0h-224c-17.673 0-32-14.327-32-32v0-192c0-17.673 14.327-32 32-32v0zM192 704h160v-128h-160v128z" />
<glyph unicode="&#xe914;" glyph-name="photo" horiz-adv-x="960" d="M832 960h-704c-70.692 0-128-57.308-128-128v0-768c0-70.692 57.308-128 128-128v0h704c70.692 0 128 57.308 128 128v0 768c0 70.692-57.308 128-128 128v0zM896 64c0-35.346-28.654-64-64-64v0h-704c-35.346 0-64 28.654-64 64v0 768c0 35.346 28.654 64 64 64v0h704c35.346 0 64-28.654 64-64v0-768zM800 832h-640c-17.673 0-32-14.327-32-32v0-576c0-17.673 14.327-32 32-32v0h640c17.673 0 32 14.327 32 32v0 576c0 17.673-14.327 32-32 32v0zM800 800v-443.808l-104 112.96c-5.892 6.658-14.458 10.834-24 10.834s-18.108-4.176-23.971-10.8l-0.029-0.034-83.2-94.4-252.8 286.4c-5.892 6.658-14.458 10.834-24 10.834s-18.108-4.176-23.971-10.8l-0.029-0.034-104-119.936v258.784h640zM160 492.8l128 147.2 276.672-313.632 88.384-102.4h-493.056v268.8zM695.712 224l-109.664 126.56 85.952 97.44 128-140.128v-83.872h-104.288zM608 544c53.019 0 96 42.981 96 96s-42.981 96-96 96c-53.019 0-96-42.981-96-96v0c0-53.019 42.981-96 96-96v0zM608 704c35.346 0 64-28.654 64-64s-28.654-64-64-64c-35.346 0-64 28.654-64 64v0c0 35.346 28.654 64 64 64v0z" />
<glyph unicode="&#xe915;" glyph-name="like" d="M933.248 624.928c-39.968 10.496-134.048 10.368-271.616 13.984 5.298 26.343 8.331 56.627 8.331 87.618 0 6.166-0.12 12.304-0.358 18.412l0.027-0.879c0 114.816-83.616 215.936-157.632 215.936-52.615-0.336-95.229-42.681-95.999-95.159l-0.001-0.073c-0.704-64.448-20.608-175.776-128-232.192-7.872-4.16-30.4-15.264-33.696-16.736l1.696-1.44c-16.992 15.196-39.304 24.759-63.83 25.595l-0.17 0.005h-96c-53.019 0-96-42.981-96-96v0-512c0-53.019 42.981-96 96-96v0h96c37.695 0.338 70.109 22.606 85.131 54.651l0.245 0.581c0.418-0.138 0.925-0.26 1.445-0.344l0.059-0.008 7.648-2.016c0.597-0.123 1.091-0.255 1.573-0.413l-0.101 0.029c18.432-4.544 53.92-13.056 129.76-30.496 57.079-13.086 122.921-21.046 190.461-21.977l0.675-0.007h174.912c2.739-0.221 5.93-0.347 9.151-0.347 45.113 0 84.445 24.749 105.161 61.409l0.313 0.602c4.913 9.606 9.571 21.020 13.29 32.85l0.438 1.614c2.644 8.832 4.166 18.981 4.166 29.486 0 9.526-1.251 18.76-3.599 27.546l0.169-0.744c26.115 20.205 44.918 48.75 52.454 81.595l0.186 0.965c4.958 12.967 7.829 27.964 7.829 43.632s-2.871 30.665-8.116 44.495l0.287-0.863c22.993 23.138 38.535 53.704 42.711 87.783l0.073 0.729c1.009 5.852 1.586 12.592 1.586 19.466 0 20.655-5.207 40.094-14.381 57.075l0.315-0.637c16.262 18.589 26.464 42.841 27.323 69.455l0.005 0.177 0.352 6.688c0.256 4.224 0.448 6.816 0.448 16-2.419 53.443-39.92 97.487-89.908 109.783l-0.812 0.169zM224 32c0-17.673-14.327-32-32-32v0h-96c-17.673 0-32 14.327-32 32v0 512c0 17.673 14.327 32 32 32v0h96c17.673 0 32-14.327 32-32v0-512zM959.296 494.88c-0.672-15.808-7.296-46.88-63.296-46.88h-64c-8.837 0-16-7.163-16-16s7.163-16 16-16v0h62.016c1.159 0.099 2.509 0.155 3.872 0.155 26.792 0 48.512-21.72 48.512-48.512 0-3.776-0.431-7.45-1.247-10.978l0.064 0.327c-0.413-38.003-31.165-68.688-69.155-68.992h-76.061c-8.837 0-16-7.163-16-16s7.163-16 16-16v0h63.008c53.984 0 49.28-41.184 41.6-65.76-10.208-32.32-16.448-62.24-84.48-62.24h-52.224c-8.837 0-16-7.163-16-16s7.163-16 16-16v0h50.208c0.309 0.010 0.672 0.016 1.037 0.016 18.698 0 33.856-15.158 33.856-33.856 0-4.007-0.696-7.852-1.974-11.42l0.074 0.236c-2.783-9.059-5.824-16.692-9.391-24.022l0.431 0.982c-10.175-17.207-28.635-28.566-49.747-28.566-2.997 0-5.941 0.229-8.814 0.67l0.321-0.041h-174.912c-63.367 1.030-124.433 8.414-183.333 21.543l6.021-1.127c-132.928 30.624-139.936 33.024-148.256 35.392-14.437 2.033-25.633 13.612-27.062 28.062l-0.010 0.13-0.352 441.984c0.038 15.822 10.662 29.153 25.163 33.284l0.245 0.060c1.984 0.768 4.672 1.6 6.592 2.4 146.176 60.544 190.688 193.28 192 302.272 0 17.673 14.327 32 32 32v0c33.856 0 93.632-67.904 93.632-151.936 0.306-5.728 0.481-12.435 0.481-19.182 0-53.762-11.074-104.938-31.066-151.37l0.953 2.489c320 0 317.76-4.576 346.016-12 21.935-5.216 37.998-24.641 37.998-47.819 0-0.413-0.005-0.824-0.015-1.234l0.001 0.061c0-10.976-0.32-9.408-0.704-20.128zM144 128c-26.51 0-48-21.49-48-48s21.49-48 48-48c26.51 0 48 21.49 48 48v0c0 26.51-21.49 48-48 48v0zM144 64c-8.837 0-16 7.163-16 16s7.163 16 16 16c8.837 0 16-7.163 16-16v0c0-8.837-7.163-16-16-16v0z" />
<glyph unicode="&#xe916;" glyph-name="mail" d="M896 784h-768c-70.692 0-128-57.308-128-128v0-416c0-70.692 57.308-128 128-128v0h768c70.692 0 128 57.308 128 128v0 416c0 70.692-57.308 128-128 128v0zM64 616l224-168-224-168v336zM960 240c0-35.346-28.654-64-64-64v0h-768c-35.346 0-64 28.654-64 64v0l250.624 188 139.776-104.8c15.844-11.987 35.88-19.2 57.6-19.2s41.756 7.213 57.841 19.375l-0.241-0.175 139.776 104.864 250.624-188.064zM960 280l-224 168 224 168v-336zM550.4 348.8c-10.563-7.991-23.92-12.8-38.4-12.8s-27.837 4.809-38.561 12.917l0.161-0.117-409.6 307.2c0 35.346 28.654 64 64 64v0h768c35.346 0 64-28.654 64-64v0z" />
<glyph unicode="&#xe917;" glyph-name="news" d="M928 960h-704c-53.019 0-96-42.981-96-96v0-64h-32c-53.019 0-96-42.981-96-96v0-640c0-70.692 57.308-128 128-128v0h768c70.692 0 128 57.308 128 128v0 800c0 53.019-42.981 96-96 96v0zM960 64c0-35.346-28.654-64-64-64v0h-768c-35.346 0-64 28.654-64 64v0 640c0 17.673 14.327 32 32 32v0h32v-640c0-17.673 14.327-32 32-32s32 14.327 32 32v0 768c0 17.673 14.327 32 32 32v0h704c17.673 0 32-14.327 32-32v0-800zM624 543.808h256c8.837 0 16 7.163 16 16s-7.163 16-16 16v0h-256c-8.837 0-16-7.163-16-16s7.163-16 16-16v0zM624 639.808h256c8.837 0 16 7.163 16 16s-7.163 16-16 16v0h-256c-8.837 0-16-7.163-16-16s7.163-16 16-16v0zM624 735.808h256c8.837 0 16 7.163 16 16s-7.163 16-16 16v0h-256c-8.837 0-16-7.163-16-16s7.163-16 16-16v0zM528 95.808h-256c-8.837 0-16-7.163-16-16s7.163-16 16-16v0h256c8.89 0 16.096 7.206 16.096 16.096s-7.206 16.096-16.096 16.096v0zM528 191.808h-256c-8.837 0-16-7.163-16-16s7.163-16 16-16v0h256c8.89 0 16.096 7.206 16.096 16.096s-7.206 16.096-16.096 16.096v0zM528 287.808h-256c-8.837 0-16-7.163-16-16s7.163-16 16-16v0h256c8.89 0 16.096 7.206 16.096 16.096s-7.206 16.096-16.096 16.096v0zM880 95.808h-256c-8.837 0-16-7.163-16-16s7.163-16 16-16v0h256c8.89 0 16.096 7.206 16.096 16.096s-7.206 16.096-16.096 16.096v0zM880 191.808h-256c-8.837 0-16-7.163-16-16s7.163-16 16-16v0h256c8.89 0 16.096 7.206 16.096 16.096s-7.206 16.096-16.096 16.096v0zM880 287.808h-256c-8.837 0-16-7.163-16-16s7.163-16 16-16v0h256c8.89 0 16.096 7.206 16.096 16.096s-7.206 16.096-16.096 16.096v0zM880 479.808h-608c-8.837 0-16-7.163-16-16s7.163-16 16-16v0h608c8.845 0 16.016 7.171 16.016 16.016s-7.171 16.016-16.016 16.016v0zM880 383.808h-608c-8.837 0-16-7.163-16-16s7.163-16 16-16v0h608c8.89 0 16.096 7.206 16.096 16.096s-7.206 16.096-16.096 16.096v0zM288 544h224c17.673 0 32 14.327 32 32v0 224c0 17.673-14.327 32-32 32v0h-224c-17.673 0-32-14.327-32-32v0-224c0-17.673 14.327-32 32-32v0zM320 768h160v-160h-160v160z" />
<glyph unicode="&#xe918;" glyph-name="phone" horiz-adv-x="704" d="M608 960h-512c-53.019 0-96-42.981-96-96v0-832c0-53.019 42.981-96 96-96v0h512c53.019 0 96 42.981 96 96v0 832c0 53.019-42.981 96-96 96v0zM640 32c0-17.673-14.327-32-32-32v0h-512c-17.673 0-32 14.327-32 32v0 64h576v-64zM640 128h-576v640h576v-640zM640 800h-576v64c0 17.673 14.327 32 32 32v0h512c17.673 0 32-14.327 32-32v0-64zM416 848c0-8.837-7.163-16-16-16v0h-96c-8.837 0-16 7.163-16 16v0 0c0 8.837 7.163 16 16 16v0h96c8.837 0 16-7.163 16-16v0 0zM384 48c0-8.837-7.163-16-16-16v0h-32c-8.837 0-16 7.163-16 16v0 0c0 8.837 7.163 16 16 16v0h32c8.837 0 16-7.163 16-16v0 0z" />
<glyph unicode="&#xe919;" glyph-name="cup" horiz-adv-x="896" d="M835.584 799.264l-38.848 116.992c-8.74 25.635-32.61 43.744-60.71 43.744-0.009 0-0.018 0-0.028 0h-575.999c-0.027 0-0.058 0-0.090 0-28.1 0-51.97-18.109-60.576-43.294l-0.134-0.45-39.2-117.024c-33.432-1.994-59.813-29.502-60-63.213v-96.019c0-35.346 28.654-64 64-64v0h33.088c-0.341-2.054-0.582-4.493-0.669-6.97l-0.003-0.102 64-576c3.68-32.163 30.739-56.915 63.583-56.928h448.001c32.845 0.013 59.904 24.765 63.556 56.633l0.028 0.295 64 576c-0.090 2.579-0.331 5.018-0.717 7.409l0.045-0.337h33.088c35.346 0 64 28.654 64 64v0 96c-0.149 33.893-26.78 61.518-60.26 63.258l-0.156 0.006zM160 896h576l32-96h-640zM224 0l-10.656 96h469.312l-10.656-96h-448zM686.208 128h-476.416l-35.584 320h547.584zM725.344 480h-554.688l-10.656 96h576zM832 640h-768v96h768v-96z" />
<glyph unicode="&#xe91a;" glyph-name="stack" d="M1021.568 369.44l-128 480.192c-7.917 26.992-32.458 46.368-61.523 46.368-0.016 0-0.031 0-0.047 0h-639.998c-29.058-0.009-53.588-19.382-61.39-45.915l-0.114-0.453-128-480.192c-1.548-5.217-2.457-11.214-2.496-17.419v-224.021c0-70.692 57.308-128 128-128v0h768c70.692 0 128 57.308 128 128v0 224c-0.016 6.215-0.903 12.217-2.545 17.898l0.113-0.458zM960 128c0-35.346-28.654-64-64-64v0h-768c-35.346 0-64 28.654-64 64v0 224l128 480h640l128-480v-224zM759.744 768h-495.488c-0.006 0-0.012 0-0.019 0-14.749 0-27.167-9.978-30.873-23.552l-0.052-0.224-110.24-384c-0.683-2.467-1.075-5.3-1.075-8.224 0-17.673 14.327-32 32-32 0.007 0 0.013 0 0.020 0h146.175l46.304-92.64c10.745-21.133 32.328-35.36 57.234-35.36 0.005 0 0.010 0 0.015 0h216.511c0.004 0 0.009 0 0.014 0 24.906 0 46.489 14.227 57.066 34.997l0.168 0.363 46.304 92.64h146.208c17.667 0.008 31.987 14.332 31.987 32 0 2.924-0.392 5.757-1.127 8.448l0.052-0.224-110.24 384c-3.758 13.798-16.176 23.776-30.925 23.776-0.007 0-0.013 0-0.020 0h0.001zM776.992 384h-53.184c-0.064 0-0.14 0-0.216 0-24.858 0-46.388-14.25-56.866-35.028l-0.167-0.365-46.304-92.608h-216.512l-46.304 92.608c-10.645 21.142-32.174 35.392-57.032 35.392-0.076 0-0.152 0-0.227 0h-129.492l93.568 352h495.488l93.568-352h-76.32z" />
<glyph unicode="&#xe91b;" glyph-name="bubble" d="M512 736c-190.816 0-352-102.592-352-224 0-8.837 7.163-16 16-16s16 7.163 16 16v0c0 102.4 149.536 192 320 192 8.837 0 16 7.163 16 16s-7.163 16-16 16v0zM512 896c-282.784 0-512-171.936-512-384 0-132.064 88.928-248.512 224.256-317.632 0-0.864-0.256-1.44-0.256-2.368 0-57.376-42.848-119.136-61.696-151.552v0c-1.502-3.386-2.376-7.335-2.376-11.488 0-15.994 12.966-28.96 28.96-28.96 0.014 0 0.028 0 0.042 0h-0.002c3.008 0 8.288 0.8 8.16 0.416 100 16.352 194.208 108.224 216.096 134.88 29.67-4.608 63.918-7.259 98.778-7.296h0.038c282.752 0 512 171.936 512 384s-229.248 384-512 384zM512 192c-31.641 0.031-62.694 2.438-93.022 7.052l3.422-0.428c-2.71 0.428-5.836 0.673-9.018 0.673-0.092 0-0.184 0-0.276-0.001h0.014c-0.001 0-0.003 0-0.005 0-19.879 0-37.641-9.063-49.38-23.283l-0.087-0.109c-28.366-31.421-60.861-58.357-96.809-80.171l-1.911-1.077c13.094 27.445 21.428 59.47 23.050 93.254l0.022 0.57c0.192 2.048 0.288 4.128 0.288 5.888 0 0 0 0 0 0.001 0 24.717-14.011 46.161-34.525 56.823l-0.355 0.168c-118.624 60.576-189.408 158.016-189.408 260.64 0 176.448 200.96 320 448 320s448-143.552 448-320-200.96-320-448-320z" />
<glyph unicode="&#xe91c;" glyph-name="eye" d="M1023.168 455.040c-0.166 1.575-0.402 2.969-0.718 4.333l0.046-0.237c-0.296 0.523-0.582 0.962-0.891 1.383l0.027-0.039c-0.2 0.934-0.432 1.727-0.713 2.496l0.041-0.128c-99.308 182.872-289.909 304.938-509.020 304.938-219.021 0-409.556-121.966-507.39-301.683l-1.51-3.030c-0.225-0.632-0.446-1.426-0.617-2.238l-0.023-0.13c-0.224-0.512-0.704-0.8-0.896-1.344-0.269-1.161-0.484-2.56-0.601-3.987l-0.007-0.109c-0.716-2.136-1.13-4.596-1.13-7.152s0.413-5.016 1.177-7.316l-0.047 0.164c0.124-1.536 0.339-2.935 0.646-4.299l-0.038 0.203c0.192-0.544 0.672-0.832 0.896-1.344 0.188-0.932 0.409-1.726 0.679-2.497l-0.039 0.129c99.308-182.872 289.909-304.938 509.020-304.938 219.021 0 409.556 121.966 507.39 301.683l1.51 3.030c0.233 0.631 0.465 1.423 0.647 2.235l0.025 0.133c0.224 0.512 0.672 0.8 0.864 1.344 0.27 1.127 0.506 2.521 0.659 3.941l0.013 0.155c0.69 2.138 1.087 4.599 1.087 7.152s-0.398 5.013-1.134 7.322l0.047-0.17zM512 192.224c-188.201 1.939-352.342 103.125-442.78 253.638l-1.316 2.362c90.542 154.031 255.435 255.791 444.096 255.791s353.554-101.76 442.787-253.386l1.309-2.405c-91.79-152.839-255.91-254.007-443.809-255.998l-0.287-0.002zM512 576h-0.192c-70.692 0-128-57.308-128-128v0c0-8.837 7.163-16 16-16s16 7.163 16 16v0c0 53.019 42.981 96 96 96v0 0c0.029 0 0.062 0 0.096 0 8.837 0 16 7.164 16 16 0 8.803-7.109 15.946-15.899 16h-0.005zM511.264 672c-123.533-0.237-223.584-100.434-223.584-224 0-123.712 100.288-224 224-224s224 100.288 224 224v0c-0.128 123.739-100.467 224-224.224 224-0.068 0-0.135 0-0.203 0h0.011zM511.264 256c-105.887 0.2-191.648 86.085-191.648 192 0 106.039 85.961 192 192 192s192-85.961 192-192v0c-0.219-106.074-86.25-191.982-192.35-192h-0.002z" />
<glyph unicode="&#xe91d;" glyph-name="location" horiz-adv-x="768" d="M384 392.128c106.039 0 192 85.961 192 192s-85.961 192-192 192c-106.039 0-192-85.961-192-192v0c0.109-105.995 86.005-191.891 191.99-192h0.010zM384 744.128c88.366 0 160-71.634 160-160s-71.634-160-160-160c-88.366 0-160 71.634-160 160v0c0 88.366 71.634 160 160 160v0zM384 960c-0.276 0.001-0.602 0.001-0.929 0.001-211.565 0-383.072-171.507-383.072-383.072 0-0.327 0-0.653 0.001-0.979v0.050c0-224 192-453.152 332.032-614.176 12.746-14.216 30.495-23.721 50.455-25.733l0.329-0.027h2.432c20.289 2.039 38.038 11.544 50.719 25.686l0.065 0.074c139.968 160.96 331.968 390.176 331.968 614.176 0.001 0.276 0.001 0.602 0.001 0.929 0 211.565-171.507 383.072-383.072 383.072-0.327 0-0.653 0-0.979-0.001h0.050zM387.712 3.744c-1.277-1.087-2.686-2.14-4.16-3.102l-0.16-0.098c-1.245 1.595-2.599 3-4.086 4.253l-0.042 0.035c-117.248 134.976-315.264 362.688-315.264 571.168 0 176.731 143.269 320 320 320s320-143.269 320-320v0c0-208.48-197.952-436.192-316.288-572.256z" />
<glyph unicode="&#xe91e;" glyph-name="display" d="M864 800h-704c-17.673 0-32-14.327-32-32v0-448c0-17.673 14.327-32 32-32v0h704c17.673 0 32 14.327 32 32v0 448c0 17.673-14.327 32-32 32v0zM864 320h-704v448h704v-448zM928 928h-832c-53.019 0-96-42.981-96-96v0-640c0 0 0 0 0-0.001 0-52.907 42.798-95.818 95.663-95.999h320.337v-38.912l-199.744-25.952c-14.225-3.455-24.623-16.082-24.623-31.138 0-17.673 14.327-32 32-32 0.129 0 0.258 0.001 0.387 0.002h575.98c17.658 0.020 31.965 14.339 31.965 32 0 14.91-10.198 27.439-23.999 30.992l-0.222 0.048-199.744 26.016v38.944h320.32c52.882 0.182 95.68 43.093 95.68 95.999 0 0 0 0 0 0.001v0 640c0 53.019-42.981 96-96 96v0zM960 192c0-17.673-14.327-32-32-32v0h-832c-17.673 0-32 14.327-32 32v0 640c0 17.673 14.327 32 32 32v0h832c17.673 0 32-14.327 32-32v0-640z" />
<glyph unicode="&#xe91f;" glyph-name="diamond" d="M1005.248 650.496l-162.56 162.592c-11.579 11.583-27.576 18.748-45.247 18.752h-570.849c-17.671-0.004-33.669-7.169-45.248-18.752l-162.56-162.592c-11.595-11.584-18.768-27.593-18.768-45.277 0-16.356 6.136-31.279 16.231-42.593l-0.055 0.063 448-477.056c11.777-13.209 28.842-21.487 47.84-21.487s36.063 8.278 47.784 21.424l0.056 0.063 448 477.056c10.031 11.249 16.161 26.165 16.161 42.514 0 17.693-7.179 33.709-18.784 45.294l-0.001 0.001zM583.040 607.84h-142.080l71.040 59.168zM536.992 687.84l87.488 72.896 64.544-64.576-81.024-67.488zM416 628.672l-81.024 67.488 64.544 64.576 87.488-72.896zM591.68 575.84l-79.68-398.496-79.68 398.496h159.36zM624.32 575.84h157.024l-235.52-392.608zM632.96 607.84l78.784 65.6 65.632-65.6h-144.416zM662.624 767.84h112.416l-61.312-51.2zM512 708.64l-71.040 59.2h142.080zM310.4 716.736l-61.312 51.2h112.416zM312.384 673.44l78.784-65.6h-144.416zM399.808 575.84l78.496-392.608-235.52 392.608h157.024zM406.656 240.512l-314.88 335.328h113.728zM818.752 575.84h113.76l-314.944-335.36zM822.752 607.84l-86.176 86.176 73.6 61.28 147.424-147.456h-134.784zM214.080 755.36l73.6-61.344-86.176-86.176h-137.184z" />
<glyph unicode="&#xe920;" glyph-name="pen" d="M940.8 877.44c-48.463 49.688-115.581 80.987-190.012 82.555l-0.292 0.005c-0.784 0.011-1.71 0.017-2.638 0.017-57.188 0-109.019-22.935-146.798-60.108l0.028 0.027-155.744-156.8c-0.48-0.448-1.024-0.768-1.504-1.216s-0.384-0.608-0.64-0.864v0l-330.56-333.056c-14.782-14.771-25.98-33.126-32.18-53.651l-0.236-0.909-75.168-272.256c-2.322-9.518-4.115-20.85-5.009-32.434l-0.047-0.75c0-61.856 50.144-112 112-112v0c13.758 1.114 26.385 3.234 38.625 6.327l-1.601-0.343 271.296 71.328c21.435 6.483 39.786 17.709 54.558 32.51l0.002 0.002 488.384 492.224c89.024 88.96 79.008 237.952-22.464 339.392zM512.48 198.4c-3.163 31.097-11.319 59.579-23.683 85.679l0.675-1.583 302.528 302.496c6.17-16.131 9.743-34.788 9.743-54.28 0-40.838-15.685-78.012-41.36-105.827l0.097 0.106c-0.256-0.256-0.576-0.384-0.832-0.64l0.416-0.416-247.296-249.248c0.032 7.936 0.416 15.744-0.288 23.712zM473.408 311.68c-25.578 44.124-62.25 79.306-106.267 102.382l-1.445 0.69 305.024 304.992c47.186-21.155 84.688-56.9 107.517-101.412l0.579-1.244zM335.552 429.856c-27.074 11.494-58.513 18.483-91.498 19.195l-0.278 0.005 246.4 248.384c27.207 24.906 63.604 40.167 103.566 40.167 15.415 0 30.3-2.271 44.338-6.496l-1.087 0.281zM133.376 3.936c-6.057-1.659-13.43-3.085-20.965-3.989l-0.763-0.075c-26.358 0.199-47.648 21.613-47.648 47.999 0 0.045 0 0.091 0 0.136v-0.007c0.847 7.013 1.97 13.132 3.427 19.121l-0.227-1.105 33.664 122.048c83.693-0.125 151.492-68.001 151.492-151.712 0-0.371-0.001-0.742-0.004-1.113v0.057zM283.968 43.488c-1.297 48.254-21.545 91.539-53.538 122.882l-0.030 0.030c-30.891 31.506-73.090 51.826-120.016 54.38l-0.464 0.020 32 115.456c2.832 8.454 7.089 15.745 12.542 21.96l-0.062-0.072c64.192 45.952 162.912 32.384 231.52-36.224 72.512-72.544 83.744-178.752 27.872-242.208-3.26-1.84-7.068-3.539-11.039-4.883l-0.481-0.141zM918.144 583.136l-53.888-54.4c0 7.232 0.864 14.208 0.224 21.568-16.059 138.569-130.308 245.84-270.609 250.866l-0.495 0.014 53.024 53.44c26.207 25.6 62.090 41.394 101.662 41.394 0.811 0 1.62-0.007 2.427-0.020l-0.122 0.002c109.231-5.434 197.277-89.333 209.158-196.218l0.090-0.998c0.355-3.828 0.558-8.279 0.558-12.778 0-40.028-16.043-76.309-42.050-102.763l0.020 0.021z" />
<glyph unicode="&#xe921;" glyph-name="bulb" horiz-adv-x="704" d="M352 960c-194.404 0-352-157.596-352-352v0c0-128.992 118.048-265.6 160.992-385.76 64-179.2 57.024-286.24 191.008-286.24 136 0 126.88 106.688 191.008 285.504 43.104 120.32 160.992 258.496 160.992 386.496 0 194.404-157.596 352-352 352v0zM434.976 90.368l-158.688-19.84c-5.664 16.416-11.744 35.584-19.2 60.608-0.097 0.261-0.196 0.592-0.276 0.931l-0.012 0.061 198.048 24.736c-2.816-9.6-5.856-19.392-8.448-28.288-4.128-14.368-8-26.848-11.424-38.208zM247.552 162.944q-8.672 28.8-19.68 61.056h248.512c-3.904-11.488-7.84-23.008-11.264-33.888zM352 0c-3.118-0.621-6.702-0.976-10.37-0.976-25.501 0-46.991 17.173-53.537 40.585l-0.093 0.391 135.616 16.96c-19.52-52.896-33.824-56.96-71.616-56.96zM501.504 288h-298.656c-16 34.528-35.2 69.12-53.952 102.944-41.6 74.72-84.896 152-84.896 217.056 0 159.058 128.942 288 288 288s288-128.942 288-288v0c0-64.576-43.2-142.272-84.96-217.6-18.72-33.568-37.696-68.032-53.536-102.4zM352 800c-105.995-0.109-191.891-86.005-192-191.99v-0.010c0-8.837 7.163-16 16-16s16 7.163 16 16v0c0.109 88.321 71.678 159.891 159.989 160h0.011c8.837 0 16 7.163 16 16s-7.163 16-16 16v0z" />
<glyph unicode="&#xe922;" glyph-name="lock" horiz-adv-x="768" d="M672 544v128c0 159.058-128.942 288-288 288s-288-128.942-288-288v0-128c-53.019 0-96-42.981-96-96v0-224c0-159.058 128.942-288 288-288v0h192c159.058 0 288 128.942 288 288v0 224c0 53.019-42.981 96-96 96v0zM160 672c0 123.712 100.288 224 224 224s224-100.288 224-224v0-128h-64v128c0 88.366-71.634 160-160 160s-160-71.634-160-160v0-128h-64v128zM512 672v-128h-256v128c0 70.692 57.308 128 128 128s128-57.308 128-128v0zM704 352v-128c-0.164-123.646-100.354-223.836-223.984-224h-192.016c-123.646 0.164-223.836 100.354-224 223.984v224.016c0 17.673 14.327 32 32 32v0h576c17.673 0 32-14.327 32-32v0-96zM384 352c-35.346 0-64-28.654-64-64v0c3.473-31.638 11.002-60.568 22.122-87.644l-0.778 2.14c3.128-22.15 20.484-39.452 42.397-42.467l0.259-0.029c24.992 0 33.952 18.528 42.688 42.144 10.409 25.056 17.933 54.117 21.19 84.456l0.122 1.4c0 35.346-28.654 64-64 64v0z" />
<glyph unicode="&#xe923;" glyph-name="tag" d="M1004.544 515.84l-160 256c-22.995 36.364-62.991 60.16-108.544 60.16 0 0 0 0 0 0h-608c-70.692 0-128-57.308-128-128v0-512c0-70.692 57.308-128 128-128v0h608c0 0 0 0 0 0 45.553 0 85.548 23.796 108.234 59.635l0.31 0.525 160 256c12.209 19.254 19.456 42.701 19.456 67.84s-7.247 48.586-19.766 68.365l0.31-0.525zM950.144 414.080l-160-256c-11.402-18.175-31.331-30.080-54.041-30.080-0.036 0-0.072 0-0.109 0h-607.994c-35.346 0-64 28.654-64 64v0 512c0 35.346 28.654 64 64 64v0h608c0.102 0.001 0.222 0.001 0.343 0.001 22.707 0 42.637-11.891 53.902-29.785l0.155-0.264 160-256c6.072-9.641 9.675-21.368 9.675-33.936s-3.603-24.295-9.832-34.203l0.157 0.267zM736 544c-53.019 0-96-42.981-96-96s42.981-96 96-96c53.019 0 96 42.981 96 96v0c0 53.019-42.981 96-96 96v0zM736 384c-35.346 0-64 28.654-64 64s28.654 64 64 64c35.346 0 64-28.654 64-64v0c0-35.346-28.654-64-64-64v0z" />
<glyph unicode="&#xe924;" glyph-name="camera" d="M512 656c-141.385 0-256-114.615-256-256s114.615-256 256-256c141.385 0 256 114.615 256 256v0c0 141.385-114.615 256-256 256v0zM657.76 275.2c-35.423-41.167-87.586-67.075-145.8-67.075-106.039 0-192 85.961-192 192s85.961 192 192 192c47.844 0 91.601-17.5 125.219-46.448l-0.251 0.211c41.197-35.424 67.126-87.606 67.126-145.844 0-47.876-17.523-91.658-46.505-125.285l0.21 0.249zM512 528c-70.692 0-128-57.308-128-128v0 0c0-8.837 7.163-16 16-16s16 7.163 16 16v0 0c0 53.019 42.981 96 96 96v0c8.837 0 16 7.163 16 16s-7.163 16-16 16v0zM943.776 686.72l-138.72 23.136-43.936 109.888c-14.44 35.604-48.749 60.256-88.816 60.256-0.107 0-0.214 0-0.32-0.001h-319.984c-0.079 0-0.173 0-0.267 0-40.103 0-74.441-24.68-88.655-59.68l-0.23-0.641-43.904-109.856-138.656-23.136c-45.808-7.658-80.288-47.006-80.288-94.407 0-0.099 0-0.198 0-0.297v0.015-480c0-53.019 42.981-96 96-96v0h832c53.019 0 96 42.981 96 96v0 480c0 0.077 0 0.168 0 0.26 0 47.378-34.448 86.711-79.663 94.318l-0.561 0.078zM960 112c0-17.673-14.327-32-32-32v0h-832c-17.673 0-32 14.327-32 32v0 480c0 0.005 0 0.011 0 0.017 0 15.82 11.479 28.958 26.562 31.54l0.19 0.027 174.208 29.024 57.312 143.296c4.853 11.879 16.319 20.096 29.703 20.096 0.009 0 0.017 0 0.026 0h319.999c0.004 0 0.008 0 0.012 0 13.397 0 24.871-8.232 29.639-19.914l0.077-0.214 57.312-143.296 174.208-29.024c15.268-2.608 26.744-15.739 26.752-31.551v-480.001z" />
<glyph unicode="&#xe925;" glyph-name="settings" d="M972.544 554.272l-98.112 19.68c-5.851 16.695-11.642 30.316-18.163 43.511l1.011-2.263 55.52 83.2c6.736 9.977 10.752 22.273 10.752 35.506 0 17.677-7.166 33.68-18.752 45.262l-61.536 61.536c-11.582 11.586-27.585 18.752-45.262 18.752-13.234 0-25.529-4.016-35.734-10.897l0.228 0.145-83.2-55.52c-10.96 5.526-24.592 11.317-38.6 16.317l-2.68 0.835-19.648 98.112c-6.023 29.595-31.836 51.552-62.778 51.552-0.025 0-0.049 0-0.074 0h-87.036c-30.904-0.003-56.691-21.911-62.681-51.043l-0.071-0.413-19.648-98.112c-16.694-5.84-30.326-11.631-43.53-18.158l2.25 1.006-83.2 55.52c-9.977 6.736-22.273 10.752-35.506 10.752-17.677 0-33.68-7.166-45.262-18.752l-61.536-61.536c-11.586-11.582-18.752-27.585-18.752-45.262 0-13.234 4.016-25.529 10.897-35.734l-0.145 0.228 55.52-83.2c-5.526-10.96-11.317-24.592-16.317-38.6l-0.835-2.68-98.112-19.648c-29.595-6.023-51.552-31.836-51.552-62.778 0-0.025 0-0.049 0-0.074v0.004-87.040c0.003-30.904 21.911-56.691 51.043-62.681l0.413-0.071 98.112-19.68c5.851-16.695 11.642-30.316 18.163-43.511l-1.011 2.263-55.52-83.2c-6.736-9.977-10.752-22.273-10.752-35.506 0-17.677 7.166-33.68 18.752-45.262l61.536-61.536c11.582-11.586 27.585-18.752 45.262-18.752 13.234 0 25.529 4.016 35.734 10.897l-0.228-0.145 83.2 55.52c10.96-5.526 24.592-11.317 38.6-16.317l2.68-0.835 19.648-98.112c6.023-29.595 31.836-51.552 62.778-51.552 0.025 0 0.049 0 0.074 0h87.036c30.904 0.003 56.691 21.911 62.681 51.043l0.071 0.413 19.68 98.112c16.695 5.851 30.316 11.642 43.511 18.163l-2.263-1.011 83.2-55.52c9.977-6.736 22.273-10.752 35.506-10.752 17.677 0 33.68 7.166 45.262 18.752l61.536 61.536c11.586 11.582 18.752 27.585 18.752 45.262 0 13.234-4.016 25.529-10.897 35.734l0.145-0.228-55.52 83.2c5.526 10.96 11.317 24.592 16.317 38.6l0.835 2.68 98.112 19.648c29.595 6.023 51.552 31.836 51.552 62.778 0 0.025 0 0.049 0 0.074v-0.004 87.040c-0.003 30.904-21.911 56.691-51.043 62.681l-0.413 0.071zM861.888 384.832c-22.476-4.508-40.424-20.334-47.861-41.154l-0.139-0.446c-4.888-13.931-9.728-25.301-15.179-36.314l0.843 1.882c-4.036-8.149-6.397-17.744-6.397-27.891 0-13.231 4.015-25.525 10.894-35.729l-0.145 0.228 55.52-83.2-61.568-61.536-83.2 55.52c-9.979 6.74-22.278 10.759-35.516 10.759-10.129 0-19.708-2.353-28.22-6.542l0.376 0.167c-9.126-4.613-20.495-9.463-32.175-13.66l-2.257-0.708c-21.266-7.576-37.092-25.524-41.531-47.592l-0.069-0.408-19.744-98.208h-87.040l-19.648 98.112c-4.508 22.476-20.334 40.424-41.154 47.861l-0.446 0.139c-13.901 4.875-25.26 9.714-36.259 15.17l1.859-0.834c-8.154 4.041-17.755 6.406-27.909 6.406-13.237 0-25.536-4.019-35.742-10.903l0.227 0.145-83.2-55.52-61.536 61.536 55.52 83.2c6.74 9.979 10.759 22.278 10.759 35.516 0 10.129-2.353 19.708-6.542 28.22l0.167-0.376c-4.613 9.126-9.463 20.495-13.66 32.175l-0.708 2.257c-7.576 21.266-25.524 37.092-47.592 41.531l-0.408 0.069-98.208 19.776v87.040l98.112 19.648c22.476 4.508 40.424 20.334 47.861 41.154l0.139 0.446c4.888 13.931 9.728 25.301 15.179 36.314l-0.843-1.882c4.036 8.149 6.397 17.744 6.397 27.891 0 13.231-4.015 25.525-10.894 35.729l0.145-0.228-55.52 83.2 61.536 61.568 83.2-55.52c9.982-6.745 22.286-10.768 35.529-10.768 10.136 0 19.721 2.356 28.239 6.551l-0.376-0.167c9.135 4.626 20.494 9.476 32.166 13.668l2.234 0.7c21.266 7.576 37.092 25.524 41.531 47.592l0.069 0.408 19.776 98.176h87.040l19.648-98.112c4.508-22.476 20.334-40.424 41.154-47.861l0.446-0.139c13.915-4.875 25.285-9.715 36.296-15.171l-1.864 0.835c8.149-4.036 17.744-6.397 27.891-6.397 13.231 0 25.525 4.015 35.729 10.894l-0.228-0.145 83.2 55.52 61.568-61.568-55.52-83.2c-6.74-9.979-10.759-22.278-10.759-35.516 0-10.129 2.353-19.708 6.542-28.22l-0.167 0.376c4.625-9.142 9.475-20.511 13.667-32.194l0.701-2.238c7.576-21.266 25.524-37.092 47.592-41.531l0.408-0.069 98.176-19.744v-87.040zM512 672c-123.712 0-224-100.288-224-224s100.288-224 224-224c123.712 0 224 100.288 224 224v0c0 123.712-100.288 224-224 224v0zM512 252c-108.248 0-196 87.752-196 196s87.752 196 196 196c108.248 0 196-87.752 196-196v0c-0.018-108.241-87.76-195.982-195.998-196h-0.002zM512 576c-70.692 0-128-57.308-128-128s57.308-128 128-128c70.692 0 128 57.308 128 128v0c0 70.692-57.308 128-128 128v0zM512 352c-53.019 0-96 42.981-96 96s42.981 96 96 96c53.019 0 96-42.981 96-96v0c0-53.019-42.981-96-96-96v0z" />
<glyph unicode="&#xe926;" glyph-name="search" d="M640 960c-0.020 0-0.044 0-0.068 0-211.954 0-383.776-171.822-383.776-383.776 0-65.733 16.526-127.606 45.649-181.691l-1.005 2.043-267.008-266.944 0.224-0.224c-21.108-20.526-34.205-49.196-34.205-80.925 0-62.315 50.517-112.832 112.832-112.832 31.729 0 60.399 13.097 80.9 34.179l0.025 0.026 266.912 266.848c52.089-28.156 114.020-44.704 179.817-44.704 212.077 0 384 171.923 384 384s-171.923 384-384 384c-0.104 0-0.209 0-0.313 0h0.016zM153.6 9.856c-10.265-10.713-24.689-17.371-40.667-17.371-31.087 0-56.288 25.201-56.288 56.288 0 15.979 6.658 30.402 17.351 40.648l0.020 0.019-0.416 0.16 258.112 258.112c22.889-30.675 49.204-57.051 78.81-79.282l0.998-0.718zM640 256c-176.731 0-320 143.269-320 320s143.269 320 320 320c176.731 0 320-143.269 320-320v0c0-176.731-143.269-320-320-320v0zM640 800c-123.712 0-224-100.288-224-224v0c0-8.837 7.163-16 16-16s16 7.163 16 16v0c0 106.039 85.961 192 192 192v0c8.837 0 16 7.163 16 16s-7.163 16-16 16v0z" />
<glyph unicode="&#xe927;" glyph-name="key" d="M704 960c-176.731 0-320-143.269-320-320v0c0.24-41.897 8.599-81.775 23.581-118.232l-0.765 2.104-388.768-388.768c-11.073-9.45-18.048-23.419-18.048-39.018 0-0.030 0-0.061 0-0.091v0.005-96c0.787-35.025 28.975-63.213 63.926-63.999l0.074-0.001h96c0.020 0 0.043 0 0.066 0 15.644 0 29.659 6.972 39.108 17.979l0.058 0.069 45.856 45.952h74.912c35.346 0 64 28.654 64 64v0 64h64c35.346 0 64 28.654 64 64v0 75.008l75.84 75.84c34.36-14.245 74.251-22.617 116.069-22.848h0.091c176.731 0 320 143.269 320 320s-143.269 320-320 320v0zM704 384c-47.786 0.242-92.384 13.682-130.396 36.856l1.116-0.632-107.968-107.968c-11.583-11.579-18.748-27.576-18.752-45.247v-75.009h-64c-35.346 0-64-28.654-64-64v0-64h-74.976c-17.671-0.004-33.669-7.169-45.248-18.752v0l-45.312-45.248h-90.464v91.168l420.288 419.616c-22.548 36.875-36.007 81.445-36.288 129.138v0.078c0 141.385 114.615 256 256 256s256-114.615 256-256c0-141.385-114.615-256-256-256v0zM890.144 696.352c-36.49 50.342-79.375 93.216-128.081 128.557l-1.647 1.139c-4.996 3.639-11.256 5.823-18.027 5.823-3.678 0-7.206-0.644-10.476-1.826l0.215 0.068c-42.936-14.359-76.102-47.547-90.142-89.498l-0.29-0.998c-1.115-3.029-1.76-6.528-1.76-10.177 0-0.011 0-0.022 0-0.033v0.002c0.021-6.775 2.201-13.038 5.887-18.139l-0.063 0.091c36.469-50.332 79.333-93.196 128.019-128.527l1.645-1.137c5.003-3.639 11.27-5.822 18.046-5.822 3.647 0 7.146 0.632 10.394 1.793l-0.216-0.067c42.992 14.306 76.207 47.511 90.239 89.499l0.289 0.997c1.149 3.064 1.818 6.605 1.824 10.301v0.003c-0.030 6.738-2.196 12.965-5.855 18.044l0.063-0.092zM794.144 607.648c-47.259 34.336-87.629 74.432-121.179 119.871l-1.061 1.505c11.025 33.485 36.634 59.451 69.11 70.741l0.778 0.235c47.409-34.293 87.802-74.574 121.143-120.323l1.065-1.533c-11.111-33.292-36.675-59.076-69.046-70.262l-0.778-0.234z" />
<glyph unicode="&#xe928;" glyph-name="user" d="M995.488 53.248c-85.272 53.31-184.555 94.286-290.542 117.279l-6.162 1.121c55.281 74.105 97.401 161.601 120.875 256.451l1.045 4.989c24.096 100.096 14.752 295.936-81.344 417.984-53.891 66.69-135.679 108.984-227.344 108.984s-173.453-42.294-226.912-108.432l-0.432-0.552c-96-122.048-105.6-317.888-81.376-417.984 24.534-99.837 66.652-187.33 123.293-263.367l-1.373 1.927c-112.149-24.119-211.432-65.095-300.657-120.696l3.953 2.296c-17.28-11.642-28.494-31.135-28.494-53.248 0-35.34 28.644-63.99 63.982-64h896.001c35.339 0.010 63.982 28.66 63.982 64 0 22.113-11.215 41.606-28.267 53.103l-0.228 0.145zM648.544 211.2l-10.464-13.312c-76.32-87.648-176-87.648-252.128 0l-10.496 13.312c-73.664 92.356-118.2 210.776-118.2 339.598 0 22.968 1.416 45.606 4.165 67.83l-0.268-2.66c17.472 136.928 96 279.968 250.848 279.968s233.376-143.040 250.848-279.968c2.474-19.542 3.886-42.153 3.886-65.095 0-128.845-44.531-247.289-119.042-340.78l0.852 1.107zM64 0c78.993 49.047 170.93 86.779 269.019 107.985l5.733 1.039 79.488 17.216c25.996-18.902 58.554-30.238 93.76-30.238s67.764 11.337 94.223 30.559l-0.463-0.32 79.488-17.216c103.823-22.266 195.756-59.995 278.49-111.177l-3.738 2.153h-896z" />
<glyph unicode="&#xe929;" glyph-name="trash" horiz-adv-x="896" d="M895.392 741.856c-3.008 50.362-44.551 90.074-95.385 90.144h-96.007v32c0 53.019-42.981 96-96 96v0h-320c-53.019 0-96-42.981-96-96v0 0-32h-96c-50.83-0.069-92.367-39.764-95.379-89.847l-0.013-0.265h-0.608v-69.888c0-35.346 28.654-64 64-64v0 0-544c0-70.692 57.308-128 128-128v0h512c70.692 0 128 57.308 128 128v0 544c35.346 0 64 28.654 64 64v0 69.856h-0.608zM256 864c0 17.673 14.327 32 32 32v0h320c17.673 0 32-14.327 32-32v0-32h-384v32zM768 64c0-35.346-28.654-64-64-64v0h-512c-35.346 0-64 28.654-64 64v0 544h640v-544zM832 704v-32h-768v64c0 17.673 14.327 32 32 32v0h704c17.673 0 32-14.327 32-32v0-32zM224 64h64c17.673 0 32 14.327 32 32v0 416c0 17.673-14.327 32-32 32v0h-64c-17.673 0-32-14.327-32-32v0-416c0-17.673 14.327-32 32-32v0zM224 512h64v-416h-64v416zM416 64h64c17.673 0 32 14.327 32 32v0 416c0 17.673-14.327 32-32 32v0h-64c-17.673 0-32-14.327-32-32v0-416c0-17.673 14.327-32 32-32v0zM416 512h64v-416h-64v416zM608 64h64c17.673 0 32 14.327 32 32v0 416c0 17.673-14.327 32-32 32v0h-64c-17.673 0-32-14.327-32-32v0-416c0-17.673 14.327-32 32-32v0zM608 512h64v-416h-64v416z" />
<glyph unicode="&#xe92a;" glyph-name="video" d="M960 768h-28.352c-17.466-0.039-33.283-7.069-44.807-18.439l-86.841-85.497v39.936c0 53.019-42.981 96-96 96v0h-608c-53.019 0-96-42.981-96-96v0-512c0-53.019 42.981-96 96-96v0h608c53.019 0 96 42.981 96 96v0 39.040l86.72-85.504c11.517-11.363 27.334-18.393 44.792-18.432h28.488c35.346 0 64 28.654 64 64v0 512.896c0 35.346-28.654 64-64 64v0zM96 160c-17.673 0-32 14.327-32 32v0 512c0 17.673 14.327 32 32 32v0h608c17.673 0 32-14.327 32-32v0-512c0-17.673-14.327-32-32-32v0h-608zM960 191.104h-32l-128 128v0.896l-32 32v192l160 160h32v-512.896z" />
<glyph unicode="&#xe92b;" glyph-name="sound" d="M863.808 512v0c0-8.837 7.163-16 16-16s16 7.163 16 16v0s0 0 0 0.256c-0.254 176.325-143.080 319.206-319.359 319.552h-0.033c-0.235 0.072-0.527 0.139-0.825 0.187l-0.039 0.005c-8.837 0-16-7.163-16-16s7.163-16 16-16v0 0c159.066-0.109 288.001-128.955 288.256-287.976v-0.024zM291.008 932c-17.372 17.367-41.367 28.108-67.872 28.108-53.019 0-96-42.981-96-96 0-0.038 0-0.076 0-0.113v0.006-440.256l-99.936-99.872c-17.366-17.372-28.107-41.367-28.107-67.872s10.741-50.5 28.108-67.872v0l224.192-224c17.38-17.414 41.408-28.188 67.952-28.188s50.572 10.773 67.95 28.186l99.938 99.874h440.768c0.013 0 0.028 0 0.044 0 53.019 0 96 42.981 96 96 0 26.505-10.741 50.5-28.108 67.872v0zM441.76 109.376l-99.968-99.872c-5.792-5.798-13.797-9.385-22.64-9.385s-16.848 3.587-22.64 9.385v0l-224.224 224c-5.779 5.789-9.353 13.781-9.353 22.608s3.574 16.819 9.354 22.608v0l99.936 99.904c0.288 0.288 0.384 0.704 0.672 0.96l269.856-269.568c-0.128-0.384-0.544-0.48-0.832-0.768zM487.072 128.128c-5.277-0.445-10.15-1.454-14.791-2.977l0.455 0.129-284.576 284.32c1.392 4.166 2.401 9.018 2.832 14.034l0.016 0.238v385.344l682.080-681.216h-385.856zM957.312 147.872c-4.87-11.667-16.132-19.744-29.296-19.872h-9.616l-727.168 726.4v9.6c0 0.007 0 0.016 0 0.025 0 17.673 14.327 32 32 32 8.835 0 16.833-3.58 22.624-9.369l704.704-704c5.787-5.79 9.366-13.788 9.366-22.621 0-4.435-0.902-8.66-2.534-12.5l0.079 0.209zM575.52 896v0c212.144-0.073 384.134-171.893 384.48-383.967v-0.033c0-17.673 14.327-32 32-32s32 14.327 32 32v0s0 0 0 0.256c-0.255 247.063-200.461 447.279-447.494 447.552h-0.026c-0.235 0.072-0.527 0.139-0.825 0.187l-0.039 0.005c-0.014 0-0.031 0-0.048 0-17.673 0-32-14.327-32-32 0-17.656 14.3-31.973 31.949-32h0.003z" />
<glyph unicode="&#xe92c;" glyph-name="tv" d="M708.96 700.032c-78.621 17.071-168.937 26.848-261.536 26.848s-182.915-9.777-269.971-28.356l8.435 1.508c-11.331-2.383-20.324-10.505-23.902-21.118l-0.066-0.226c-21.958-62.999-34.641-135.618-34.641-211.2s12.683-148.201 36.036-215.846l-1.395 4.646c3.644-10.839 12.637-18.961 23.759-21.307l0.209-0.037c78.621-17.071 168.937-26.848 261.536-26.848s182.915 9.777 269.971 28.356l-8.435-1.508c11.344 2.372 20.35 10.497 23.934 21.118l0.066 0.226c21.958 62.999 34.641 135.618 34.641 211.2s-12.683 148.201-36.036 215.846l1.395-4.646c-3.65 10.847-12.656 18.972-23.792 21.307l-0.208 0.037zM702.56 266.176c-76.682-16.648-164.771-26.184-255.088-26.184s-178.405 9.535-263.315 27.654l8.227-1.47c-21.021 60.020-33.164 129.216-33.164 201.248s12.143 141.228 34.493 205.652l-1.33-4.404c76.682 16.648 164.771 26.184 255.088 26.184s178.405-9.535 263.315-27.654l-8.227 1.47c21.011-60.007 33.148-129.186 33.148-201.201 0-72.050-12.149-141.262-34.51-205.7l1.33 4.405zM987.136 773.76c-6.325 25.898-27.791 45.379-54.28 48.672l-0.312 0.032c-126.399 16.257-272.62 25.536-421.008 25.536-148.386 0-294.605-9.278-438.109-27.286l17.101 1.75c-26.801-3.325-48.267-22.806-54.501-48.265l-0.091-0.439c-23.347-93.030-36.744-199.831-36.744-309.76s13.397-216.728 38.647-318.855l-1.902 9.095c6.325-25.898 27.791-45.379 54.28-48.672l0.312-0.032c67.2-8.16 135.040-14.176 202.784-18.4-2.997-1.308-5.223-3.902-6.001-7.065l-0.015-0.071c0-17.696 100.384-32 224.224-32s224.224 14.304 224.224 32c-0.784 3.239-3.013 5.836-5.949 7.11l-0.067 0.026c67.776 4.224 135.52 10.24 202.816 18.4 26.801 3.325 48.267 22.806 54.501 48.265l0.091 0.439c23.324 93.012 36.706 199.79 36.706 309.693 0 109.952-13.395 216.775-38.641 318.927l1.903-9.1zM924.8 168.96c-124.079-15.952-267.616-25.057-413.28-25.057-145.662 0-289.197 9.104-430.068 26.774l16.788-1.718c-22.325 88.578-35.136 190.265-35.136 294.944s12.811 206.367 36.951 303.581l-1.815-8.637c124.079 15.952 267.616 25.057 413.28 25.057 145.662 0 289.197-9.104 430.068-26.774l-16.788 1.718c22.333-88.562 35.149-190.232 35.149-294.896s-12.816-206.332-36.963-303.525l1.814 8.629zM848 592c26.51 0 48 21.49 48 48s-21.49 48-48 48c-26.51 0-48-21.49-48-48v0c0-26.51 21.49-48 48-48v0zM848 656c8.837 0 16-7.163 16-16s-7.163-16-16-16c-8.837 0-16 7.163-16 16v0c0 8.837 7.163 16 16 16v0zM880 272h-96c-8.837 0-16-7.163-16-16s7.163-16 16-16v0h96c8.837 0 16 7.163 16 16s-7.163 16-16 16v0zM912 368h-96c-8.837 0-16-7.163-16-16s7.163-16 16-16v0h96c8.837 0 16 7.163 16 16s-7.163 16-16 16v0zM912 464h-96c-8.837 0-16-7.163-16-16s7.163-16 16-16v0h96c8.837 0 16 7.163 16 16s-7.163 16-16 16v0zM431.52 598.24l-146.912-11.488c-9.277-1.513-16.576-8.5-18.533-17.483l-0.027-0.149-9.792-89.152c-0.018-0.278-0.029-0.602-0.029-0.929 0-8.324 6.748-15.072 15.072-15.072 0.044 0 0.088 0 0.131 0.001h-0.007c8.91 0.112 16.141 7.143 16.574 15.961l0.002 0.039 5.344 60.608c1.652 9.108 8.883 16.133 17.964 17.458l0.116 0.014 120.096 8.224c8.871 0.402 15.921 7.653 16 16.568v0.008c0 0.045 0.001 0.098 0.001 0.151 0 8.43-6.834 15.264-15.264 15.264-0.293 0-0.584-0.008-0.873-0.025l0.040 0.002z" />
<glyph unicode="&#xe92d;" glyph-name="star" d="M1020.192 574.176c-9.22 25.575-31.498 44.312-58.575 48.304l-0.401 0.048-266.432 39.616-115.84 240.448c-12.547 24.746-37.8 41.41-66.944 41.41s-54.397-16.664-66.748-40.985l-0.196-0.426-115.808-240.448-266.464-39.616c-27.465-4.051-49.729-22.785-58.782-47.839l-0.162-0.513c-2.434-6.837-3.841-14.723-3.841-22.937 0-19.641 8.044-37.404 21.016-50.174l0.009-0.009 195.2-194.976-45.28-270.432c-0.59-3.444-0.928-7.41-0.928-11.455 0-24.416 12.29-45.961 31.020-58.788l0.243-0.157c11.912-8.234 26.665-13.152 42.565-13.152 0.009 0 0.019 0 0.028 0h-0.001c13.098 0.014 25.419 3.33 36.178 9.159l-0.402-0.199 232.352 124.96 232.32-125.056c10.338-5.641 22.644-8.959 35.725-8.959 15.926 0 30.704 4.917 42.898 13.317l-0.255-0.166c18.971 13.005 31.255 34.563 31.255 58.99 0 4.029-0.334 7.98-0.976 11.827l0.057-0.417-45.312 270.432 195.2 194.976c13.013 12.832 21.074 30.657 21.074 50.364 0 8.181-1.389 16.038-3.945 23.348l0.151-0.496zM754.816 356.384c-12.96-12.839-20.984-30.64-20.984-50.316 0-4.087 0.346-8.093 1.011-11.991l-0.059 0.419 45.28-270.464-232.288 125.024c-10.345 5.661-22.664 8.99-35.76 8.99s-25.415-3.329-36.156-9.188l0.396 0.198-232.32-125.024 45.312 270.464c0.606 3.479 0.952 7.485 0.952 11.572 0 19.676-8.024 37.477-20.978 50.31l-0.005 0.005-195.2 194.912 266.432 39.712c24.638 3.64 45.038 18.992 55.614 40.117l0.194 0.427 115.744 240.416 115.84-240.416c10.737-21.554 31.121-36.911 55.342-40.495l0.402-0.049 266.464-39.712z" />
<glyph unicode="&#xe92e;" glyph-name="heart" d="M934.144 806.656c-55.569 54.606-131.825 88.316-215.955 88.316-79.416 0-151.816-30.038-206.459-79.372l0.27 0.24c-54.372 49.094-126.772 79.132-206.189 79.132-84.13 0-160.387-33.71-216-88.359l0.044 0.043c-55.458-54.598-89.818-130.487-89.818-214.4s34.361-159.802 89.78-214.362l0.039-0.038 353.696-349.792c17.597-17.342 41.772-28.051 68.448-28.051s50.851 10.709 68.46 28.063l-0.012-0.012 353.696 349.792c55.458 54.598 89.818 130.487 89.818 214.4s-34.361 159.802-89.78 214.362l-0.039 0.038zM888.48 423.008l-353.664-349.76c-5.864-5.771-13.916-9.335-22.8-9.335s-16.936 3.563-22.804 9.339l0.004-0.004-353.696 349.76c-43.72 43.133-70.802 103.036-70.802 169.264s27.082 126.131 70.776 169.238l0.026 0.026c43.84 43.036 103.979 69.601 170.322 69.601 62.696 0 119.852-23.725 162.978-62.686l-0.212 0.189 43.392-39.040 43.392 39.008c42.914 38.773 100.069 62.497 162.766 62.497 66.343 0 126.482-26.565 170.36-69.638l-0.037 0.037c43.726-43.124 70.813-103.023 70.813-169.248s-27.087-126.124-70.786-169.221l-0.027-0.027zM296.064 735.168v0c-0.047 0-0.104 0-0.16 0-75.035 0-135.867-60.81-135.904-135.836v-0.004c0-8.837 7.163-16 16-16s16 7.163 16 16v0 0c0.036 57.357 46.542 103.84 103.904 103.84 0.023 0 0.045 0 0.068 0h-0.003c0.014 0 0.031 0 0.048 0 8.837 0 16 7.163 16 16 0 8.82-7.136 15.973-15.949 16h-0.003z" />
<glyph unicode="&#xe92f;" glyph-name="cloud" d="M829.248 555.424c-13.709 146.705-136.228 260.632-285.355 260.632-115.055 0-214.271-67.814-259.859-165.652l-0.738-1.764c-13.447 4.647-28.944 7.33-45.067 7.33-78.539 0-142.208-63.669-142.208-142.208 0-16.726 2.888-32.778 8.192-47.684l-0.308 0.994c-62.549-36.49-103.912-103.271-103.912-179.713 0-114.522 92.838-207.36 207.36-207.36 0.228 0 0.456 0 0.684 0.001h575.965c0.079 0 0.173 0 0.267 0 132.46 0 239.84 107.38 239.84 239.84 0 116.55-83.135 213.684-193.339 235.335l-1.519 0.249zM784 144h-576c-79.485 0.109-143.891 64.515-144 143.989v0.011c0.020 52.77 28.76 98.822 71.437 123.378l0.691 0.366c43.872 25.216 46.88 30.208 28.48 75.488-2.725 7.345-4.396 15.828-4.606 24.674l-0.002 0.094c0 44.183 35.817 80 80 80v0c1.099 0.040 2.389 0.062 3.685 0.062 14.243 0 27.846-2.737 40.313-7.713l-0.734 0.259c36.736-14.624 40.736-0.608 58.080 37.12 35.92 77.506 113.052 130.3 202.516 130.3 115.924 0 211.144-88.641 221.579-201.841l0.065-0.874c3.968-45.824 3.968-45.824 51.712-56.736 81.242-16.68 141.477-87.596 141.477-172.581 0-96.743-78.055-175.255-174.623-175.995h-0.070z" />
</font>
</defs>
</svg>
